<svg xmlns="http://www.w3.org/2000/svg" viewBox="0 0 200 355.73"><defs><style>.cls-1{fill:#fff;}.cls-2,.cls-4{fill:none;}.cls-3{fill-opacity:0.6;}.cls-4{stroke:#3a425e;stroke-linecap:round;stroke-linejoin:round;stroke-width:3px;}.cls-5{fill:#3a425e;}.cls-6{fill:#dcdde1;}</style></defs><g id="Layer_2" data-name="Layer 2"><g id="Layer_1-2" data-name="Layer 1"><rect class="cls-1" x="0.03" y="0.03" width="199.95" height="355.68"/><rect class="cls-2" width="200" height="355.73"/><rect class="cls-3" width="200" height="355.73"/><path class="cls-1" d="M0,291.73a10.67,10.67,0,0,1,10.67-10.66H189.33A10.67,10.67,0,0,1,200,291.73v64H0Z"/><path class="cls-4" d="M95.47,289.66l4.27,4,4.34-4"/><path class="cls-5" d="M18.3,336.13v.42h2.07a4.63,4.63,0,0,1-.17,1l-2.18.15.09.46L20,338A4.12,4.12,0,0,1,18,339.93l.29.4a4.3,4.3,0,0,0,2.62-4.2Zm5,1.73h-.92v-2.33h-.53v5.74h.53v-3h.92Zm.91-1.73v.42h2.07a4.63,4.63,0,0,1-.17,1l-2.19.15.09.46,1.94-.19a4.16,4.16,0,0,1-2.05,1.95l.29.4a4.29,4.29,0,0,0,2.61-4.2Zm5,1.73h-.92v-2.33h-.52v5.74h.52v-3h.92Zm1.57-.45c0-.66.67-1.09,1.58-1.09s1.58.43,1.58,1.09-.66,1.09-1.58,1.09S30.73,338.07,30.73,337.41Zm1.84,2.69v-1.2c1.07-.07,1.82-.64,1.82-1.49s-.87-1.5-2.08-1.5-2.09.59-2.09,1.5S31,338.83,32,338.9v1.2H29.71v.44h5.21v-.44Zm3.61-.11H39.6v1.29h.52v-1.72H36.18Zm2.28-1.36V338h1.72v-.41H36.8V337H40v-.39H36.8v-.55h3.35v-.41H36.28V338h1.65v.61H35.6v.42h5.19v-.42Z"/><path class="cls-5" d="M168.75,337.65h.73v2.18h.5v-4.29h-.5v1.68h-.73v-1.58h-.5v4h.5Zm-1.62.68h-1.24v-1h1.24Zm.49-2.33h-.49v.94h-1.24V336h-.5v2.75h2.23Zm-.86,4.71v-1.42h-.52v1.85h3.91v-.43Zm8.87-2.43H172.2v-1.79h3.37v-.43h-3.89v2.65h3.95ZM171,340.06v.44h5.21v-.44Z"/><circle class="cls-6" cx="29.87" cy="318.4" r="13.33"/><circle class="cls-6" cx="170.67" cy="318.4" r="13.33"/><path class="cls-5" d="M65.34,336.68h.72v2.7l-.72,0Zm1.2,0H67v-.42H64.39v.42h.47v2.74h-.58l0,.44a18,18,0,0,0,2.84-.19l0-.39-.6.07Zm1.09,1h-.79v.46h.79V341h.49v-5.3h-.49Zm1.11-2.18v5.73h.5v-5.73Zm5.66,0v5.75h.52v-5.75Zm-2.5.44c-.85,0-1.46.78-1.46,2s.61,2,1.46,2,1.46-.78,1.46-2S72.75,336,71.9,336Zm0,.48c.55,0,.95.6.95,1.53s-.4,1.53-.95,1.53-1-.6-1-1.53S71.33,336.45,71.9,336.45Zm9.16,2c-1-.19-2.09-1.07-2.09-2v-.45h-.55v.45c0,1-1.08,1.84-2.09,2l.24.43a3.13,3.13,0,0,0,2.12-1.66,3.12,3.12,0,0,0,2.13,1.66Zm-5,1.65v.43h5.21v-.43ZM86,337.39H83.2v-.66H86Zm.52-1.72H86v.65H83.2v-.65h-.51v2.14h3.82Zm.68,3.1v-.43H82v.43h2.34v.67H82.58v.42H86v1.42h.52v-1.84H84.86v-.67Z"/><circle class="cls-6" cx="76.27" cy="318.4" r="13.33"/><path class="cls-5" d="M117.89,338.12H120v-2.06h-2.59v.43h2.08v1.2h-2.06v2.2h.45a14.68,14.68,0,0,0,2.76-.21l-.06-.43a12.77,12.77,0,0,1-2.64.2Zm4.61-.31h-.94v-2.29H121v5.76h.52v-3h.94Zm5.24-2.27h-.53v4.19h.53Zm-4.07,1.8a1,1,0,1,1,1,1A.94.94,0,0,1,123.67,337.34Zm2.49,0a1.5,1.5,0,1,0-1.51,1.42A1.42,1.42,0,0,0,126.16,337.34Zm-1.59,3.37V339.3H124v1.84h3.87v-.43Z"/><circle class="cls-6" cx="123.2" cy="318.4" r="13.33"/></g></g></svg>