<svg xmlns="http://www.w3.org/2000/svg" viewBox="0 0 200 355.73"><defs><style>.cls-1{fill:#fff;}.cls-2,.cls-4{fill:none;}.cls-3{fill:#03a5af;}.cls-4{stroke:#fff;stroke-linecap:round;stroke-linejoin:round;stroke-width:2px;}.cls-5{fill:#f7f7f7;}</style></defs><g id="Layer_2" data-name="Layer 2"><g id="Layer_1-2" data-name="Layer 1"><rect class="cls-1" x="0.03" y="0.03" width="199.95" height="355.68"/><rect class="cls-2" width="200" height="355.73"/><rect class="cls-1" width="200" height="355.73"/><rect class="cls-3" width="200" height="26.67"/><path class="cls-1" d="M85.58,11.72h3.57v1.17H85.58ZM88,15.37V13.84h2.37V9.48H89.15v1.3H85.58V9.48H84.39v4.36h2.37v1.53H83.59v1h7.56v-1Zm9-2.62A2.4,2.4,0,0,1,95,10.48h1.64v-1H92.12v1h1.66a2.7,2.7,0,0,1-2,2.55l.6.94a3.24,3.24,0,0,0,2-1.81,3.1,3.1,0,0,0,1.92,1.52ZM95.77,16.4c-1.06,0-1.64-.23-1.64-.7s.58-.71,1.64-.71,1.64.23,1.64.71S96.84,16.4,95.77,16.4Zm0-2.33c-1.74,0-2.82.6-2.82,1.63s1.08,1.61,2.82,1.61,2.82-.6,2.82-1.61S97.51,14.07,95.77,14.07Zm2.73-3.19V9H97.31v5H98.5V11.86h1.11v-1Zm3.29-1H100.6v5.39h.58a15.62,15.62,0,0,0,2.88-.24l-.1-1a13.75,13.75,0,0,1-2.17.22ZM106.28,9v3.22h-.75V9.11h-1.12v7.8h1.12V13.14h.75V17.3h1.14V9Zm3.63,6.28h4.49v2.09h1.19v-3h-5.68Zm3.16-3.33a2.1,2.1,0,0,0,.05-.43,1.88,1.88,0,0,0-.05-.43h1.33v.86Zm-2.16.62a1.05,1.05,0,1,1,1.07-1A1,1,0,0,1,110.91,12.52ZM114.4,9v1.13h-1.81a2.27,2.27,0,0,0-1.68-.69,2.07,2.07,0,1,0,0,4.14,2.25,2.25,0,0,0,1.67-.69h1.82V13.9h1.19V9Z"/><path class="cls-4" d="M183.47,9.13l4,3.83,4-3.89"/><path class="cls-4" d="M191.47,17l-4-3.83-4,3.9"/><rect class="cls-5" y="26.67" width="200" height="26.67"/></g></g></svg>