<svg xmlns="http://www.w3.org/2000/svg" viewBox="0 0 200 356"><defs><style>.cls-1{fill:#fff;}.cls-2,.cls-5{fill:none;}.cls-3{fill-opacity:0.6;}.cls-4{fill:#606781;}.cls-5{stroke:#000;stroke-width:0.2px;}.cls-6{fill:#dcdde1;}</style></defs><g id="Layer_2" data-name="Layer 2"><g id="Layer_1-2" data-name="Layer 1"><rect class="cls-1" x="0.03" y="0.03" width="199.95" height="355.68"/><rect class="cls-2" width="200" height="355.73"/><rect class="cls-3" width="200" height="355.73"/><path class="cls-1" d="M0,166.4a10.67,10.67,0,0,1,10.67-10.67H189.33A10.67,10.67,0,0,1,200,166.4V356H0Z"/><path class="cls-4" d="M19.2,186.06a1.52,1.52,0,0,1,1.64-1.53,1.53,1.53,0,1,1,0,3.05A1.52,1.52,0,0,1,19.2,186.06Zm4.14,0a2.29,2.29,0,0,0-2.5-2.26,2.27,2.27,0,1,0,0,4.52A2.3,2.3,0,0,0,23.34,186.06Zm-4,4h5.34v2.72h.88v-3.44H19.37ZM27,185.41v-.73H25.59v-1.45h-.88v5.68h.88v-1.46H27v-.72H25.59v-1.32Zm6,1.9a13.61,13.61,0,0,0,.25-2.84V184H28.49v.71h3.9a12.37,12.37,0,0,1-.25,2.53Zm.91.57c-1,.13-2.06.22-3.11.26v-2h-.86v2.07l-2,0,.09.72a38.36,38.36,0,0,0,6-.39Zm-3.66,1.89h-.87v2.81h6.35v-.72H30.25Zm5.17-3.43v-3.12h-.87v7.21h.87v-3.37h1.37v-.72Zm6.7,5.77c-1.51,0-2.4-.38-2.4-1.05s.89-1,2.4-1,2.38.37,2.38,1S43.61,192.11,42.12,192.11Zm0-2.78c-2,0-3.28.62-3.28,1.73s1.23,1.73,3.28,1.73,3.27-.62,3.27-1.73S44.15,189.33,42.12,189.33Zm.44-1.38v-1.11h2.88v-.71H39.75v-1.77h5.62v-.7H38.88v3.18h2.8V188H37.79v.7h8.66V188Zm8.15-4a2.27,2.27,0,1,0,2.56,2.25A2.31,2.31,0,0,0,50.71,183.93Zm0,.74a1.52,1.52,0,1,1,0,3,1.52,1.52,0,1,1,0-3Zm3.82-1.45v9.59h.87v-9.59Zm-6.76,7.49a34.69,34.69,0,0,0,6.2-.42l-.07-.65a43.07,43.07,0,0,1-6.23.33Z"/><path class="cls-4" d="M46.4,215.59v.6H48v3.11h.75v-6H48v2.24Zm.48,1.91a2.79,2.79,0,0,1-2-2.49v-.4h1.79V214H42.34v.61h1.82V215a3,3,0,0,1-2,2.66l.39.58a3.49,3.49,0,0,0,2-2,3.36,3.36,0,0,0,2,1.84Zm-2.55,3.18v-1.9h-.75v2.51H49v-.61Zm8.46-5.23h1.5v-.62H52.8v-1.2h-.72v1.2h-1.5v.62h1.5v.39a4,4,0,0,1-1.72,3.41l.43.55a4,4,0,0,0,1.65-2.42,3.79,3.79,0,0,0,1.67,2.25l.43-.56a3.69,3.69,0,0,1-1.75-3.23Zm2.19,1.1H53.74v.61H55V221h.71v-7.51H55Zm1.63-3.21v8.12h.72v-8.12Zm8.09,7.55c-1.29,0-2-.32-2-.89s.75-.89,2-.89,2,.32,2,.89S66,220.89,64.7,220.89Zm0-2.36c-1.74,0-2.79.53-2.79,1.47s1.05,1.47,2.79,1.47,2.78-.52,2.78-1.47S66.42,218.53,64.7,218.53Zm.37-1.18v-.94h2.45v-.6H62.69v-1.5h4.78v-.6H61.94v2.7h2.39v.94H61v.6h7.36v-.6ZM72,213.94a1.93,1.93,0,1,0,2.17,1.91A2,2,0,0,0,72,213.94Zm0,.63a1.29,1.29,0,1,1-1.45,1.28A1.32,1.32,0,0,1,72,214.57Zm3.24-1.23v8.15H76v-8.15Zm-5.73,6.36a30.36,30.36,0,0,0,5.26-.35l-.06-.55a37,37,0,0,1-5.3.28Z"/><path class="cls-4" d="M45,242.19v.43h1.15v2.19h.53v-4.2h-.53v1.58Zm.33,1.35a2,2,0,0,1-1.39-1.76v-.28h1.26v-.43H42.12v.43H43.4v.28A2.09,2.09,0,0,1,42,243.67l.27.4a2.42,2.42,0,0,0,1.45-1.42,2.36,2.36,0,0,0,1.38,1.3Zm-1.79,2.24v-1.34H43v1.77h3.83v-.43Zm6-3.69h1.06v-.43H49.5v-.86H49v.86H47.94v.43H49v.28a2.82,2.82,0,0,1-1.22,2.4l.31.39a2.8,2.8,0,0,0,1.16-1.71A2.68,2.68,0,0,0,50.43,245l.3-.4a2.6,2.6,0,0,1-1.23-2.27Zm1.55.78h-.88v.43h.88V246h.5v-5.31h-.5Zm1.15-2.27v5.73h.5V240.6Zm5.71,5.33c-.91,0-1.44-.22-1.44-.63s.53-.62,1.44-.62,1.42.22,1.42.62S58.8,245.93,57.91,245.93Zm0-1.66c-1.23,0-2,.37-2,1s.75,1,2,1,2-.37,2-1S59.12,244.27,57.91,244.27Zm.26-.84v-.66H59.9v-.42H56.49v-1.07h3.37v-.42H56v1.91h1.68v.66H55.31v.43H60.5v-.43ZM63.06,241a1.36,1.36,0,1,0,1.53,1.35A1.4,1.4,0,0,0,63.06,241Zm0,.45a.91.91,0,1,1,0,1.8.91.91,0,1,1,0-1.8Zm2.29-.87v5.75h.52V240.6Zm-4,4.49a20.91,20.91,0,0,0,3.72-.25l0-.39a26.1,26.1,0,0,1-3.74.2Z"/><path class="cls-4" d="M44.44,290.56a.55.55,0,0,0-.21-.46,2.43,2.43,0,0,0-.76-.33,3.52,3.52,0,0,1-.88-.37,1.17,1.17,0,0,1-.62-1,1.09,1.09,0,0,1,.45-.9,1.81,1.81,0,0,1,1.16-.36,1.93,1.93,0,0,1,.85.18,1.37,1.37,0,0,1,.59.5,1.26,1.26,0,0,1,.21.71h-.79a.68.68,0,0,0-.22-.55.9.9,0,0,0-.64-.21,1,1,0,0,0-.61.17.55.55,0,0,0-.21.46.51.51,0,0,0,.23.42,2.64,2.64,0,0,0,.77.32,4.09,4.09,0,0,1,.85.36,1.4,1.4,0,0,1,.47.47,1.17,1.17,0,0,1,.15.61,1.06,1.06,0,0,1-.44.9,1.9,1.9,0,0,1-1.18.34,2.12,2.12,0,0,1-.91-.19,1.54,1.54,0,0,1-.64-.5,1.3,1.3,0,0,1-.23-.75h.79a.74.74,0,0,0,.26.6,1.11,1.11,0,0,0,.73.21,1,1,0,0,0,.62-.16A.57.57,0,0,0,44.44,290.56Zm2.79-.79-.51.54v1.42h-.79v-4.55h.79v2.14l.43-.54,1.33-1.6h1l-1.69,2,1.79,2.53H48.6Zm6-1.95H51.83v3.91h-.78v-3.91H49.64v-.64h3.61Z"/><path class="cls-4" d="M45.25,260.9a2,2,0,0,1-1.38-1.77v-.64h-.53v.59a2.1,2.1,0,0,1-1.43,2l.28.42A2.42,2.42,0,0,0,43.61,260,2.41,2.41,0,0,0,45,261.31Zm-.68,2.62c-.85,0-1.37-.23-1.37-.63s.52-.64,1.37-.64,1.36.24,1.36.64S45.41,263.52,44.57,263.52Zm0-1.68c-1.17,0-1.89.38-1.89,1.05s.72,1,1.89,1,1.89-.37,1.89-1S45.73,261.84,44.57,261.84Zm1.82-2.16v-1.47h-.52v3.47h.52v-1.56h.85v-.44Zm4.74.33H49.7v-1.2h1.43Zm-2,0h-.85v.42H52.5V260h-.85v-1.2h.87v-.42H48.31v.42h.87Zm2.69,3.43H49v-.95h2.89Zm1.15-2V261H47.83v.42h2.33v.67H48.47v1.79h3.91v-1.79H50.69v-.67Zm5.65-.4c-1-.18-2.1-1-2.1-2v-.45H56V259c0,1-1.09,1.79-2.09,2l.21.44a3.09,3.09,0,0,0,2.15-1.6,3.13,3.13,0,0,0,2.15,1.6Zm-2.11,1.76v-1.39H56v1.39H53.71v.43h5.21v-.43Zm3.26-3.82v.43h1.72a3.47,3.47,0,0,1-1.94,3l.31.38a4,4,0,0,0,2.15-3.77ZM64,258.2v2.31h-.78v-2.16h-.5v5.3h.5v-2.71H64v3h.5V258.2Zm7.82,0h-.53v3.3h.53Zm-2.24,2.3H67.9V259h1.65Zm.52-1.93H67.38v2.35h2.69Zm1.85,3.72v-.4H70.24v-.56h-.53v.56H68v.4H69.7c0,.57-.92,1.11-1.9,1.23l.17.4a2.85,2.85,0,0,0,2-1.05,2.81,2.81,0,0,0,2,1.05l.18-.4c-1-.12-1.88-.68-1.89-1.23Zm4.33-3h1v-.43H74.65v.43h1.09v.52a3,3,0,0,1-1.25,2.58l.32.39A3,3,0,0,0,76,261a2.76,2.76,0,0,0,1.15,1.68l.32-.39a2.77,2.77,0,0,1-1.22-2.44Zm1.53,1h-.94v.43h.94v2.95h.5v-5.31h-.5Zm1.16-2.07v5.74h.5v-5.74Zm2.39,2.65h.46a.82.82,0,0,0,.56-.18.66.66,0,0,0,.2-.51.69.69,0,0,0-.17-.51.67.67,0,0,0-.52-.18.71.71,0,0,0-.5.18.6.6,0,0,0-.2.46H80.4a1.14,1.14,0,0,1,.19-.64,1.18,1.18,0,0,1,.52-.44,1.64,1.64,0,0,1,.74-.17,1.55,1.55,0,0,1,1.07.35,1.19,1.19,0,0,1,.39.95,1,1,0,0,1-.19.58,1.19,1.19,0,0,1-.51.4,1.11,1.11,0,0,1,.57.41,1.09,1.09,0,0,1,.2.65,1.24,1.24,0,0,1-.42,1,1.85,1.85,0,0,1-2.18,0,1.14,1.14,0,0,1-.42-.93h.76a.66.66,0,0,0,.2.49.78.78,0,0,0,.54.18.82.82,0,0,0,.56-.18.74.74,0,0,0,.2-.55.71.71,0,0,0-.21-.55.9.9,0,0,0-.63-.2h-.45ZM86,259.22H87.3v-.43H84.19v.43H85.5V260A3,3,0,0,1,84,262.42l.31.42a3.25,3.25,0,0,0,1.47-1.9,3.08,3.08,0,0,0,1.44,1.76l.3-.42A2.75,2.75,0,0,1,86,260Zm3.43,1.3h-.94v-2.31H88v5.73h.53v-3h.94Zm5.19-.83v.43h1.13v1.5h.53v-3.41h-.53v1.48ZM95,261a2,2,0,0,1-1.4-1.76V259h1.26v-.42H91.76V259H93v.2a2.13,2.13,0,0,1-1.45,1.92l.28.41a2.44,2.44,0,0,0,1.44-1.46,2.36,2.36,0,0,0,1.38,1.3Zm-.55,2.53c-.87,0-1.39-.24-1.39-.66s.52-.66,1.39-.66,1.38.25,1.38.66S95.27,263.53,94.41,263.53Zm0-1.73c-1.18,0-1.92.39-1.92,1.07s.74,1.07,1.92,1.07,1.91-.39,1.91-1.07S95.58,261.8,94.41,261.8Zm4.18-1.74h2.93v1.06H98.59Zm1.73,2.72v-1.24H102v-2.93h-.51v1H98.59v-1h-.52v2.93h1.72v1.24H97.46v.42h5.2v-.42ZM105,259.3h1v-.43h-2.61v.43h1.08v.52a3,3,0,0,1-1.24,2.58l.32.39a3,3,0,0,0,1.18-1.82,2.76,2.76,0,0,0,1.15,1.68l.32-.39a2.77,2.77,0,0,1-1.22-2.44Zm1.53,1h-.94v.43h.94v2.95h.5v-5.31h-.5Zm1.16-2.07v5.74h.5v-5.74Zm5.53.79a5,5,0,0,1-.16,1.46l.51.06a5.35,5.35,0,0,0,.16-1.52v-.49h-3.91v.43h3.4Zm-1.44,4.54c-.9,0-1.48-.24-1.48-.64s.58-.65,1.48-.65,1.47.24,1.47.65S112.71,263.52,111.81,263.52Zm0-1.69c-1.23,0-2,.39-2,1.05s.77,1.05,2,1.05,2-.39,2-1.05S113,261.83,111.81,261.83Zm.08-1v-1.1h-.53v1.1h-2.11v.43h5.16v-.43Zm5.82-2.18c.94,0,1.48.22,1.48.6s-.54.61-1.48.61-1.48-.22-1.48-.61S116.77,258.69,117.71,258.69Zm0,1.6c1.26,0,2-.35,2-1s-.76-1-2-1-2,.35-2,1S116.45,260.29,117.71,260.29Zm-1.44,2.59h3.38v-1.29h-3.91v.4h3.39v.51h-3.37v1.38h4.06v-.41h-3.55Zm-1.16-2.2v.42h5.2v-.42Zm9.37-1.78c.56,0,1,.3,1,.75s-.4.75-1,.75-1-.3-1-.75S123.92,258.9,124.48,258.9Zm0,1.93c.85,0,1.46-.48,1.46-1.18s-.61-1.18-1.46-1.18S123,259,123,259.65,123.63,260.83,124.48,260.83Zm1.89.28a26.66,26.66,0,0,1-3.78.21l.07.44,1.59,0v2h.52v-2.07a13.24,13.24,0,0,0,1.65-.19Zm.42-2.9V264h.52v-5.74Zm5.1.69h-1.43v-.7h-.52v.7h-1.43v.43h3.38Zm-2.56,1.81c0-.4.35-.65.87-.65s.87.25.87.65-.35.66-.87.66S129.33,261.11,129.33,260.71Zm2.24,0c0-.64-.56-1.06-1.37-1.06s-1.37.42-1.37,1.06.56,1.07,1.37,1.07S131.57,261.35,131.57,260.71Zm-1.67,1.46h-.53v1.64h3.83v-.43h-3.3Zm3-2.08V258.2h-.52v4.31h.52v-2h.85v-.45Zm3.25-1.15v.43h1.72a3.47,3.47,0,0,1-1.94,3l.31.38a4,4,0,0,0,2.15-3.77Zm4.15-.74v2.31h-.79v-2.16h-.49v5.3h.49v-2.71h.79v3h.5V258.2Zm6.23,0H146v4.19h.53ZM142.5,260a1,1,0,0,1,2,0,1,1,0,0,1-2,0Zm2.49,0a1.5,1.5,0,1,0-1.51,1.42A1.42,1.42,0,0,0,145,260Zm-1.59,3.37V262h-.52v1.84h3.86v-.43Zm4.41-1.76a4.73,4.73,0,0,1,.19-1.37,3.69,3.69,0,0,1,.57-1.16,2.28,2.28,0,0,1,.79-.72l.15.44a2.39,2.39,0,0,0-.71,1,4.61,4.61,0,0,0-.3,1.56v.27a5.17,5.17,0,0,0,.26,1.69,2.49,2.49,0,0,0,.75,1.13l-.15.42a2.1,2.1,0,0,1-.79-.72A3.87,3.87,0,0,1,148,263,5,5,0,0,1,147.81,261.62Zm6.88-3.42h-.53v4.21h.53Zm-1.26,2.86a2.12,2.12,0,0,1-1.43-2v-.58h-.53v.58a2.22,2.22,0,0,1-1.44,2.06l.28.43a2.57,2.57,0,0,0,1.43-1.53,2.48,2.48,0,0,0,1.42,1.42Zm-1.91,2.32V262H151v1.79h3.87v-.43Zm6.94.15c-.91,0-1.44-.22-1.44-.61s.53-.62,1.44-.62,1.43.23,1.43.62S159.35,263.53,158.46,263.53Zm0-1.64c-1.23,0-2,.37-2,1s.74,1,2,1,2-.35,2-1S159.69,261.89,158.46,261.89Zm-.8-1.52a5.36,5.36,0,0,0,1.6,0V261h-1.6Zm-.68-1c0-.42.56-.66,1.48-.66s1.47.24,1.47.66-.56.66-1.47.66S157,259.78,157,259.37Zm2.79,1.67v-.81a1,1,0,0,0,.7-.86c0-.67-.77-1.07-2-1.07s-2,.4-2,1.07a.94.94,0,0,0,.7.86V261h-1.28v.42h5.19V261Zm3.5.63a5,5,0,0,1-.19,1.34,3.77,3.77,0,0,1-.58,1.17,2.26,2.26,0,0,1-.81.73l-.15-.42a2.4,2.4,0,0,0,.74-1.1,5,5,0,0,0,.27-1.71v-.07a5.19,5.19,0,0,0-.23-1.58,2.79,2.79,0,0,0-.69-1.15l-.09-.09.15-.42a2.3,2.3,0,0,1,.77.69,4,4,0,0,1,.58,1.1,4.51,4.51,0,0,1,.22,1.26ZM45,270.36v.43h1.14v1.5h.53v-3.42h-.53v1.49Zm.32,1.3a2,2,0,0,1-1.39-1.75v-.2h1.26v-.42H42.12v.42H43.4v.2A2.1,2.1,0,0,1,42,271.82l.27.42a2.46,2.46,0,0,0,1.45-1.46,2.35,2.35,0,0,0,1.38,1.29Zm-.55,2.54c-.86,0-1.38-.25-1.38-.66s.52-.67,1.38-.67,1.39.25,1.39.67S45.64,274.2,44.77,274.2Zm0-1.73c-1.17,0-1.91.39-1.91,1.07s.74,1.07,1.91,1.07,1.92-.39,1.92-1.07S46,272.47,44.77,272.47ZM49,270.73h2.93v1H49Zm1.73,2.71v-1.23H52.4v-2.93h-.51v1H49v-1h-.52v2.93h1.72v1.23H47.83v.43H53v-.43ZM57,270h1v-.43H55.4V270h1.09v.52a3,3,0,0,1-1.25,2.57l.32.39a3,3,0,0,0,1.18-1.81,2.75,2.75,0,0,0,1.15,1.67l.32-.38A2.79,2.79,0,0,1,57,270.49Zm1.54,1h-1v.43h1v2.95H59V269h-.5Zm1.15-2.07v5.74h.5v-5.74Zm5.53.79a5,5,0,0,1-.16,1.46l.52.05a5.29,5.29,0,0,0,.16-1.51v-.49H61.82v.42h3.39Zm-1.44,4.54c-.9,0-1.47-.24-1.47-.64s.57-.65,1.47-.65,1.48.24,1.48.65S64.67,274.19,63.77,274.19Zm0-1.7c-1.22,0-2,.4-2,1.06s.78,1.05,2,1.05,2-.4,2-1.05S65,272.49,63.77,272.49Zm.08-.95v-1.1h-.52v1.1H61.21V272h5.16v-.42Zm5.83,2.66c-.91,0-1.44-.23-1.44-.63s.53-.63,1.44-.63,1.43.23,1.43.63S70.58,274.2,69.68,274.2Zm0-1.67c-1.23,0-2,.37-2,1s.74,1,2,1,2-.37,2-1S70.9,272.53,69.68,272.53Zm.26-.83V271h1.73v-.43H68.26v-1.06h3.37v-.42H67.74V271h1.68v.66H67.08v.42h5.2v-.42Zm4.89-2.41a1.36,1.36,0,1,0,1.54,1.35A1.38,1.38,0,0,0,74.83,269.29Zm0,.45a.91.91,0,1,1-1,.9A.93.93,0,0,1,74.83,269.74Zm2.29-.87v5.75h.53v-5.75Zm-4.05,4.49a20.79,20.79,0,0,0,3.72-.25l0-.39a26.25,26.25,0,0,1-3.74.2Zm7.14-3.88h-.52v5.08h.52v.59H78.93v-6.26h1.28Zm4.6,3.68h.53v-4.29h-.53v1.35H83.56v.43h1.25ZM84,271.8a2,2,0,0,1-1.39-1.86v-.73h-.53v.71a2.17,2.17,0,0,1-1.43,2l.28.41a2.48,2.48,0,0,0,1.42-1.5,2.46,2.46,0,0,0,1.37,1.37Zm-1.79,2.25v-1.36h-.53v1.79h3.83v-.43Zm7-2.59a8.44,8.44,0,0,1-1.93.16v-.78H88.9v-.41H87.26v-.72H89v-.42H86.75v2.76h.37a10,10,0,0,0,2.12-.16Zm-1.7,1.61h3.33v1.54h.53v-2H87.49Zm3.35-4.2v1.49h-.77V269h-.5v3.34h.5v-1.52h.77v1.56h.51v-3.48Zm1.25,0h1.28v6.26H92.09v-.59h.52v-5.08h-.52Z"/><rect class="cls-5" x="12.85" y="203.79" width="174.29" height="27.36" rx="1.55"/><rect class="cls-6" x="12.8" y="306.13" width="174.4" height="29.33"/><path class="cls-1" d="M87.36,323.82c-1.29,0-2-.31-2-.88s.75-.89,2-.89,2,.31,2,.89S88.63,323.82,87.36,323.82Zm0-2.35c-1.74,0-2.79.52-2.79,1.47s1.05,1.46,2.79,1.46,2.78-.52,2.78-1.46S89.08,321.47,87.36,321.47Zm.37-1.18v-.94h2.45v-.6H85.35v-1.51h4.78v-.6H84.61v2.71H87v.94H83.68v.6H91v-.6Zm6.93-3.42a1.93,1.93,0,1,0,2.18,1.91A2,2,0,0,0,94.66,316.87Zm0,.63a1.29,1.29,0,1,1-1.45,1.28A1.32,1.32,0,0,1,94.66,317.5Zm3.25-1.23v8.15h.74v-8.15Zm-5.74,6.37a29.42,29.42,0,0,0,5.26-.36l-.06-.55a36.91,36.91,0,0,1-5.29.28Zm10.58-.67a1.26,1.26,0,1,1,1.27-1.25A1.21,1.21,0,0,1,102.75,322Zm0-3.12a1.87,1.87,0,1,0,2,1.87A1.85,1.85,0,0,0,102.75,318.85Zm.36-2.48h-.74v1.21h-2.05v.6h4.79v-.6h-2Zm4.85,3.25h-1.33v-3.34h-.75v8.12h.75v-4.16H108Zm1.22-2.47v.6h3.06a5.38,5.38,0,0,1-3.43,4.53l.4.61a6.09,6.09,0,0,0,3.78-5.74Zm5.45-.88v8.13h.75v-8.13Z"/><circle class="cls-6" cx="29.87" cy="217.6" r="6.4"/><path class="cls-1" d="M31.56,216a.37.37,0,0,1,.53,0,.4.4,0,0,1,0,.54l-2.62,2.72a.36.36,0,0,1-.52,0,.38.38,0,0,1,0-.54Z"/><path class="cls-1" d="M29.44,218.67a.41.41,0,0,1,0,.55.37.37,0,0,1-.53,0l-1.26-1.32a.39.39,0,0,1,0-.55.36.36,0,0,1,.52,0Z"/><path class="cls-6" d="M35,239.67a.74.74,0,0,1,1,0,.7.7,0,0,1,0,1l-5.1,5a.72.72,0,0,1-1,0,.7.7,0,0,1,0-1Z"/><path class="cls-6" d="M30.9,244.63a.7.7,0,0,1,0,1,.72.72,0,0,1-1,0l-2.47-2.42a.69.69,0,0,1,0-1,.72.72,0,0,1,1,0Z"/><path class="cls-6" d="M35,263.67a.74.74,0,0,1,1,0,.7.7,0,0,1,0,1l-5.1,5a.72.72,0,0,1-1,0,.7.7,0,0,1,0-1Z"/><path class="cls-6" d="M30.9,268.63a.7.7,0,0,1,0,1,.72.72,0,0,1-1,0l-2.47-2.42a.69.69,0,0,1,0-1,.72.72,0,0,1,1,0Z"/><path class="cls-6" d="M35,286.61a.72.72,0,0,1,1,0,.69.69,0,0,1,0,1l-5.1,5a.72.72,0,0,1-1,0,.69.69,0,0,1,0-1Z"/><path class="cls-6" d="M30.9,291.57a.69.69,0,0,1,0,1,.72.72,0,0,1-1,0l-2.47-2.41a.7.7,0,0,1,0-1,.72.72,0,0,1,1,0Z"/></g></g></svg>