<svg xmlns="http://www.w3.org/2000/svg" viewBox="0 0 200.05 355.78"><defs><style>.cls-1{fill:#fff;}.cls-2{fill-opacity:0.6;}.cls-3{fill:#494949;}.cls-4,.cls-5{fill:none;}.cls-4{stroke:#3e4356;stroke-linecap:round;stroke-linejoin:round;}.cls-5{stroke:#000;stroke-width:0.1px;}</style></defs><g id="Layer_2" data-name="Layer 2"><g id="Layer_1-2" data-name="Layer 1"><rect class="cls-1" x="0.05" y="0.05" width="199.95" height="355.68"/><rect class="cls-2" x="0.02" y="0.02" width="200" height="355.73"/><rect class="cls-1" x="25.62" y="137.09" width="149.33" height="63.47" rx="2.67"/><path class="cls-3" d="M38.55,169.77a12.14,12.14,0,0,1-.22,2.6l.52,0a12.71,12.71,0,0,0,.22-2.65v-.57h-4v.43h3.5ZM37,173.13v-2.06h-.52v2.06h-2v.43h5.19v-.43Zm5-4.08a1.36,1.36,0,1,0,1.54,1.35A1.38,1.38,0,0,0,42.05,169.05Zm0,.44a.91.91,0,1,1-1,.91A.93.93,0,0,1,42.05,169.49Zm2.29-.87v5.76h.53v-5.76Zm-4.05,4.5a21.76,21.76,0,0,0,3.72-.25l0-.39a26.15,26.15,0,0,1-3.74.19Zm9-1.69a2,2,0,0,1-1.39-1.76v-.23h1.26V169H46.07v.43h1.28v.23a2.07,2.07,0,0,1-1.44,1.88l.27.42a2.42,2.42,0,0,0,1.44-1.43,2.41,2.41,0,0,0,1.39,1.3Zm-2.49,1.37h3.31v1.57h.53v-2H46.78Zm3.31-4.18v1.5H49v.43h1.12v1.51h.53v-3.44Zm4.81.5h-.51v1a3,3,0,0,1-1.48,2.57l.31.42a3.15,3.15,0,0,0,1.43-1.9A3.16,3.16,0,0,0,56,173l.32-.42a2.91,2.91,0,0,1-1.46-2.46ZM58.34,171h-1v-2.32h-.52v5.73h.52v-3h1Zm4.38-1.18a12.71,12.71,0,0,1-.21,2.6l.52,0a12.71,12.71,0,0,0,.22-2.65v-.57h-4v.43h3.5Zm-1.5,3.36v-2.06H60.7v2.06h-2v.43h5.19v-.43Zm9.25-4.51h-.53v3.3h.53Zm-2.24,2.3H66.58v-1.51h1.65Zm.52-1.93H66.06v2.35h2.69Zm1.85,3.72v-.4H68.92v-.56h-.53v.56H66.7v.4h1.68c0,.57-.92,1.12-1.9,1.23l.17.4a2.85,2.85,0,0,0,2-1.05,2.78,2.78,0,0,0,2,1.05l.18-.4c-1-.12-1.88-.68-1.88-1.23Zm5.28,1.18h-3v-.42l1.58-1.75a3.61,3.61,0,0,0,.48-.64,1.07,1.07,0,0,0,.13-.51.84.84,0,0,0-.21-.59.77.77,0,0,0-.58-.23.88.88,0,0,0-.67.25.92.92,0,0,0-.24.68h-.57a1.35,1.35,0,0,1,.4-1,1.53,1.53,0,0,1,1.08-.38,1.46,1.46,0,0,1,1,.33,1.16,1.16,0,0,1,.37.89,2.64,2.64,0,0,1-.86,1.6l-1.22,1.32h2.29Zm4.58-1H81v-4.25h-.53v.74H78.84v.42h1.62v.68H78.84v.42h1.62Zm-.95-1.5a14.52,14.52,0,0,1-2.4.21V169h-.52v3H77a14.29,14.29,0,0,0,2.55-.21Zm-1.68,2.43v-1.3h-.52v1.73h3.82v-.43Zm8.3-5.19v5.76h.52v-5.76Zm-2.51.44c-.85,0-1.46.79-1.46,2s.61,2,1.46,2,1.46-.78,1.46-2S84.47,169.06,83.62,169.06Zm0,.48c.56,0,1,.6,1,1.53s-.4,1.53-1,1.53-1-.6-1-1.53S83.06,169.54,83.62,169.54Zm4.83-.22h-.52v3.55h.36a10.44,10.44,0,0,0,2.06-.18l0-.45a10.86,10.86,0,0,1-1.85.18Zm3.56-.7V171H91.2v-2.21h-.49v5.32h.49v-2.68H92v3h.51v-5.74Zm4.66,1H98v-.44H94.84v.44h1.31v.73a3,3,0,0,1-1.51,2.47l.31.41a3.25,3.25,0,0,0,1.47-1.9,3.08,3.08,0,0,0,1.44,1.76l.3-.42a2.75,2.75,0,0,1-1.49-2.32Zm3.43,1.29h-.94v-2.31h-.53v5.73h.53v-3h.94Zm3.66,0a1.86,1.86,0,0,1-1.4-1.72v-.44h-.52v.45a2,2,0,0,1-1.44,1.87l.26.42a2.33,2.33,0,0,0,1.45-1.41,2.35,2.35,0,0,0,1.38,1.24Zm-2,2.28h3.12v-1.38h-3.65v.42h3.13v.57h-3.11v1.43h3.84v-.42h-3.33Zm3.12-3.38v-1.25h-.53v3h.53v-1.31h.85v-.43Zm3.83-.64c.9,0,1.48.27,1.48.73s-.58.71-1.48.71-1.48-.26-1.48-.71S107.82,169.24,108.72,169.24Zm0,1.87c1.23,0,2-.43,2-1.14s-.79-1.15-2-1.15-2,.43-2,1.15S107.49,171.11,108.72,171.11Zm-1.4,1.46h-.52v1.67h3.94v-.43h-3.42Zm-1.2-.93v.43h5.19v-.43Zm10.54-2H118v-.44h-3.2v.44h1.33v.73a2.94,2.94,0,0,1-1.52,2.46l.3.42a3.16,3.16,0,0,0,1.48-1.89,3,3,0,0,0,1.51,1.75l.29-.42a2.69,2.69,0,0,1-1.54-2.32Zm2.13-1v5.73h.52v-5.73Zm5.53,5.23H121.5v-.78h2.82Zm0-1.19H121.5v-.76H121v2.38h3.86v-2.38h-.52Zm.38-1.7a7.43,7.43,0,0,0,.15-1.67v-.41H121v.42h3.36a6.86,6.86,0,0,1-.16,1.66h-3.86v.42h5.21V171Zm3.9-1.85c.94,0,1.48.21,1.48.6s-.54.6-1.48.6-1.48-.22-1.48-.6S127.66,169.12,128.6,169.12Zm0,1.59c1.26,0,2-.35,2-1s-.76-1-2-1-2,.35-2,1S127.34,170.71,128.6,170.71Zm-1.44,2.6h3.37V172h-3.9v.4H130v.51h-3.36v1.38h4.06v-.41h-3.55ZM126,171.1v.42h5.2v-.42Zm8.78-1.38h1v-.43h-2.62v.43h1.09v.52a3,3,0,0,1-1.25,2.58l.32.39a3,3,0,0,0,1.18-1.82,2.77,2.77,0,0,0,1.15,1.68l.32-.38a2.8,2.8,0,0,1-1.22-2.45Zm1.54,1h-.95v.43h.95v2.95h.5v-5.31h-.5Zm1.15-2.06v5.74H138v-5.74Zm4.73.71h-1.43v-.71h-.53v.71h-1.43v.42h3.39Zm-2.57,1.8c0-.4.35-.65.87-.65s.88.25.88.65-.36.66-.88.66S139.63,171.53,139.63,171.13Zm2.25,0c0-.64-.56-1.06-1.38-1.06s-1.37.42-1.37,1.06.56,1.07,1.37,1.07S141.88,171.78,141.88,171.13Zm-1.68,1.46h-.52v1.65h3.82v-.43h-3.3Zm3.05-2.07v-1.9h-.53v4.31h.53v-2h.84v-.44Zm4.64-1.31h-1.43v-.64h-.52v.64h-1.43v.42h3.38Zm-2.56,1.7c0-.37.34-.61.87-.61s.88.24.88.61-.36.61-.88.61S145.33,171.29,145.33,170.91Zm2.24,0c0-.61-.55-1-1.37-1s-1.37.39-1.37,1,.55,1,1.37,1S147.57,171.52,147.57,170.91Zm.86,3h-2.58v-.63h2.58Zm0-1h-2.58v-.61h-.52v2.08h3.61v-2.08h-.51Zm1.37-2.74h-.86v-1.46h-.52V172h.52v-1.44h.86Zm1.27-.9h-.53v3.7H151a14,14,0,0,0,2.81-.27l-.05-.45a13.82,13.82,0,0,1-2.71.27Zm3.29-.56v5.74h.53v-5.74Zm2.29,1h2.14v-.44h-2.67v3.77h.46a14.12,14.12,0,0,0,2.71-.2l-.06-.44a13.63,13.63,0,0,1-2.58.19Zm4.59,1.28h-.94v-2.27h-.53v5.76h.53v-3.06h.94Zm.45,2.7a.39.39,0,0,1,.08-.25.35.35,0,0,1,.27-.1.33.33,0,0,1,.27.1.36.36,0,0,1,.1.25.33.33,0,0,1-.37.33.38.38,0,0,1-.27-.09A.41.41,0,0,1,161.69,173.59Z"/><path class="cls-3" d="M35.6,149.39a1.48,1.48,0,1,1,1.48,1.44A1.41,1.41,0,0,1,35.6,149.39Zm3.72,0a2.25,2.25,0,1,0-2.24,2.12A2.12,2.12,0,0,0,39.32,149.39Zm-2.54,3H36v2.73h5.74v-.64H36.78Zm4.57-3.07v-2.62h-.79V153h.79v-3.07h1.26v-.65Zm3.36-1.57h-.79V153h.55a15.23,15.23,0,0,0,3.08-.27l-.08-.68a15.17,15.17,0,0,1-2.76.27ZM50,146.66v3.5H48.82v-3.31h-.73v8h.73v-4H50v4.44h.76v-8.6Zm5.18.75h-.78V149a4.55,4.55,0,0,1-2.22,3.85l.47.64a4.77,4.77,0,0,0,2.14-2.85,4.74,4.74,0,0,0,2.09,2.67l.49-.62A4.34,4.34,0,0,1,55.22,149Zm5.15,2.74H59v-3.48h-.79v8.6H59v-4.46h1.42Zm5.9-2.52H64.12v-1h-.79v1H61.19v.63h5.08Zm-3.85,2.58c0-.56.52-.92,1.3-.92s1.32.36,1.32.92-.53.93-1.32.93S62.42,150.78,62.42,150.21Zm3.37,0c0-.92-.84-1.52-2.07-1.52s-2,.6-2,1.52.82,1.53,2,1.53S65.79,151.14,65.79,150.21Zm-.65,4.45c-1.25,0-2-.33-2-.89s.77-.88,2-.88,2,.33,2,.88S66.4,154.66,65.14,154.66Zm0-2.38c-1.73,0-2.8.54-2.8,1.49s1.07,1.49,2.8,1.49,2.81-.55,2.81-1.49S66.87,152.28,65.14,152.28Zm2.7-3.23v-2.39h-.79v5.54h.79v-2.5h1.27v-.65Z"/><path class="cls-4" d="M156.82,145.69l4,3.83,4-3.9"/><path class="cls-4" d="M164.82,153.56l-4-3.83-4,3.89"/><rect class="cls-5" x="0.05" y="0.05" width="199.95" height="355.68"/></g></g></svg>