<svg xmlns="http://www.w3.org/2000/svg" viewBox="0 0 200.05 355.78"><defs><style>.cls-1{fill-opacity:0.6;}.cls-2{fill:#fff;}.cls-3{fill:#3e4356;}.cls-4{fill:#03a5b0;}.cls-5{fill:#494949;}.cls-6{fill:none;stroke:#000;stroke-width:0.1px;}</style></defs><g id="Layer_2" data-name="Layer 2"><g id="Layer_1-2" data-name="Layer 1"><rect class="cls-1" x="0.02" y="0.02" width="200" height="355.73"/><rect class="cls-2" x="25.62" y="117.89" width="149.33" height="113.6" rx="2.67"/><path class="cls-3" d="M25.62,207h74.67v24.53h-72a2.67,2.67,0,0,1-2.67-2.67Z"/><path class="cls-4" d="M100.29,207H175v21.86a2.67,2.67,0,0,1-2.67,2.67h-72Z"/><path class="cls-5" d="M76.71,146.6v7.67h.7V146.6Zm-3.33.59c-1.14,0-1.95,1-1.95,2.67s.81,2.67,1.95,2.67,1.94-1,1.94-2.67S74.51,147.19,73.38,147.19Zm0,.63c.74,0,1.27.8,1.27,2s-.53,2-1.27,2-1.28-.8-1.28-2S72.63,147.82,73.38,147.82Zm9.68.9v.57H84.6v2.93h.71v-5.61H84.6v2.11Zm.45,1.8a2.65,2.65,0,0,1-1.86-2.35v-.37h1.69v-.58H79.25v.58H81v.38A2.79,2.79,0,0,1,79,150.69l.36.54a3.24,3.24,0,0,0,1.93-1.9,3.11,3.11,0,0,0,1.84,1.73Zm-2.39,3v-1.79h-.71v2.36h5.11v-.57Zm9.19-6.43c-1.59,0-2.79.84-2.79,2.11s1.2,2.12,2.79,2.12,2.78-.84,2.78-2.12S91.89,147.08,90.31,147.08Zm0,.57c1.21,0,2.11.62,2.11,1.54s-.9,1.55-2.11,1.55-2.12-.62-2.12-1.55S89.1,147.65,90.31,147.65Zm-3.47,5v.58h7v-.58Zm11.68.08v-1.45H101v-.56H96.25v-1.24h4.53v-2.33H95.55v.58h4.55v1.19H95.56v2.36h2.25v1.45H94.69v.57h7v-.57Zm11.71-6.14v7.67h.7V146.6Zm-3.34.59c-1.13,0-1.94,1-1.94,2.67s.81,2.67,1.94,2.67,2-1,2-2.67S108,147.19,106.89,147.19Zm0,.63c.75,0,1.28.8,1.28,2s-.53,2-1.28,2-1.28-.8-1.28-2S106.14,147.82,106.89,147.82Zm9.09,5.89c-1.21,0-1.92-.3-1.92-.84s.71-.83,1.92-.83,1.9.29,1.9.83S117.18,153.71,116,153.71Zm0-2.22c-1.64,0-2.63.49-2.63,1.38s1,1.38,2.63,1.38,2.61-.49,2.61-1.38S117.6,151.49,116,151.49Zm.35-1.11v-.89h2.31v-.56h-4.55v-1.42h4.49V147h-5.19v2.54h2.24v.89h-3.11v.56h6.93v-.56Zm8.87-3.11h-.69v1.37a4,4,0,0,1-2.06,3.46l.43.57a4.28,4.28,0,0,0,2-2.57,4.11,4.11,0,0,0,2,2.42l.42-.56a3.8,3.8,0,0,1-2-3.32Zm2.85-.67v7.67h.7V146.6ZM51,159.41v4.1h.7v-4.1Zm-4.23,4.48V167H51.7v-3.06H51v.94H47.46v-.94Zm.69,1.48H51v1H47.46Zm.12-5.6a1.78,1.78,0,1,0,2,1.76A1.8,1.8,0,0,0,47.58,159.77Zm0,.58a1.19,1.19,0,1,1-1.3,1.18A1.21,1.21,0,0,1,47.58,160.35ZM57.31,163a16.83,16.83,0,0,1-3,.18V162h2.6v-2.17h-3.3v.57h2.62v1.06h-2.6v2.27h.55a17,17,0,0,0,3.24-.19Zm-2.87,2.08h4.42v2h.71v-2.54H54.44Zm4.42-5.68v1.13H57.37v.57h1.49v1H57.37v.56h1.49v1.42h.71v-4.7Zm4.5,5.36a1.19,1.19,0,1,1,1.2-1.18A1.15,1.15,0,0,1,63.36,164.77Zm0-3a1.77,1.77,0,1,0,1.87,1.77A1.75,1.75,0,0,0,63.36,161.82Zm.34-2.33H63v1.14H61.07v.56h4.52v-.56H63.7Zm4.57,3.06H67v-3.14h-.7v7.64H67v-3.91h1.26Zm7-3.15h-.7V165h.7Zm-1.67,3.81a2.82,2.82,0,0,1-1.92-2.61v-.77H71v.77A3,3,0,0,1,69,163.35l.37.57a3.38,3.38,0,0,0,1.91-2,3.29,3.29,0,0,0,1.89,1.89ZM71,166.31v-1.82h-.7v2.39h5.16v-.57Zm12.45-6.05H81.56v-.93h-.7v.93H79v.57h4.51Zm-3.42,2.3c0-.5.46-.82,1.16-.82s1.17.32,1.17.82-.47.83-1.17.83S80.05,163.06,80.05,162.56Zm3,0c0-.82-.75-1.35-1.84-1.35s-1.82.53-1.82,1.35.73,1.35,1.82,1.35S83.05,163.39,83.05,162.56Zm-.57,3.95c-1.12,0-1.81-.29-1.81-.79s.69-.78,1.81-.78,1.8.29,1.8.78S83.59,166.51,82.48,166.51Zm0-2.11c-1.55,0-2.5.48-2.5,1.32s1,1.33,2.5,1.33,2.49-.49,2.49-1.33S84,164.4,82.48,164.4Zm2.39-2.87V159.4h-.7v4.92h.7v-2.21H86v-.58Zm2.68,3.67h4.6v1.86h.7v-2.42h-5.3Zm.8-4.93h3.78v1.49H88.35Zm2.25,3v-1h2.22v-2.59H87.67v2.59H89.9v1H86.78v.57H93.7v-.57Zm9.6-3.88v7.67h.7V159.4Zm-3.34.59c-1.13,0-1.94,1-1.94,2.67s.81,2.67,1.94,2.67,2-1,2-2.67S98,160,96.86,160Zm0,.63c.74,0,1.27.8,1.27,2s-.53,2.05-1.27,2.05-1.28-.8-1.28-2.05S96.11,160.62,96.86,160.62Zm8.4,3.42a3.82,3.82,0,0,0,2.81-1.77,3.82,3.82,0,0,0,2.81,1.77l.27-.55c-1.48-.24-2.73-1.14-2.73-2.31h2.46v-.57h-2.46v-1h-.7v1h-2.47v.57h2.47c0,1.17-1.25,2.07-2.74,2.31Zm3.16,1.47v-1.74h-.7v1.74H104.6v.58h7v-.58Zm4.48-5.28v.56h2.88a5.07,5.07,0,0,1-3.23,4.27l.38.57a5.74,5.74,0,0,0,3.56-5.4Zm5.13-.83v7.65h.7V159.4Zm6.89.93H123v-.92h-.7v.92h-2v.56h4.58Zm-3.42,2.42c0-.53.46-.87,1.14-.87s1.14.34,1.14.87-.46.87-1.14.87S121.5,163.28,121.5,162.75Zm1.49,1.4a1.46,1.46,0,0,0,1.46-1.4c0-.86-.74-1.41-1.81-1.41s-1.81.55-1.81,1.41a1.46,1.46,0,0,0,1.46,1.4V165c-.74,0-1.46,0-2.07,0l.09.58a28.23,28.23,0,0,0,4.78-.3l0-.52A19.71,19.71,0,0,1,123,165Zm4.4-1.5H126.2V159.4h-.7v7.65h.7v-3.81h1.19Zm7.83.16c-.66.1-1.36.15-2.07.19v-.79h1.51v-.57h-3v-1.28h2.9v-.58H131v2.43h1.47V163c-.77,0-1.52,0-2.16,0l.11.56a30.46,30.46,0,0,0,4.87-.31Zm.64,3.58h-3.63v-.89h3.63Zm0-1.43h-3.63v-.81h-.7V167h5v-2.8h-.69Zm0-5.55v4.4h.7v-4.4Zm3.44.73h-.69v4.94h.63a18.35,18.35,0,0,0,3.75-.36l-.08-.6a17.74,17.74,0,0,1-3.61.36Zm4.4-.74v7.65h.7V159.4Zm3.3,1.31h2.86v-.58h-3.56v5h.61a18.34,18.34,0,0,0,3.62-.27l-.08-.58a19.2,19.2,0,0,1-3.45.25Zm6.13,1.71h-1.26v-3h-.7v7.67h.7V163h1.26ZM154,166a.49.49,0,0,1,.83-.33.46.46,0,0,1,.12.33.5.5,0,0,1-.84.32A.45.45,0,0,1,154,166ZM72.89,172.2v7.67h.7V172.2Zm-3.34.59c-1.13,0-1.94,1-1.94,2.67s.81,2.67,1.94,2.67,2-1,2-2.67S70.69,172.79,69.55,172.79Zm0,.63c.75,0,1.27.8,1.27,2s-.52,2-1.27,2-1.28-.8-1.28-2S68.8,173.42,69.55,173.42Zm9.09,5.89c-1.21,0-1.92-.3-1.92-.84s.71-.83,1.92-.83,1.9.29,1.9.83S79.84,179.31,78.64,179.31Zm0-2.22c-1.64,0-2.63.49-2.63,1.38s1,1.38,2.63,1.38,2.61-.49,2.61-1.38S80.26,177.09,78.64,177.09ZM79,176v-.89h2.3v-.56H76.75v-1.42h4.49v-.56H76.05v2.54h2.24V176H75.18v.56H82.1V176Zm6.28,1.59a1.19,1.19,0,1,1,1.2-1.18A1.15,1.15,0,0,1,85.27,177.57Zm0-2.95a1.77,1.77,0,1,0,1.87,1.77A1.74,1.74,0,0,0,85.27,174.62Zm.34-2.33h-.7v1.14H83V174H87.5v-.56H85.61Zm4.57,3.06H88.92v-3.14h-.7v7.64h.7v-3.91h1.26Zm3.41-2.48H92.9v1.37a4,4,0,0,1-2.06,3.46l.43.57a4.28,4.28,0,0,0,2-2.57,4.11,4.11,0,0,0,2,2.42l.42-.56a3.8,3.8,0,0,1-2-3.32Zm2.85-.67v7.67h.7V172.2Zm8.75,0h-.68v4.41h.68Zm-2.2,2.73v1.56h.66v-4.13H103v2h-1.21a4.05,4.05,0,0,0,.31-1.61h-3v.57h2.24a3.6,3.6,0,0,1-2.58,2.91l.37.52a5,5,0,0,0,2.33-1.83Zm1.22,1.95h-.68v.49a2.31,2.31,0,0,1-1.08,1.83,2.13,2.13,0,0,1-1.06-1.83v-.49h-.68v.49a2.21,2.21,0,0,1-1.54,1.93l.35.51a2.75,2.75,0,0,0,1.53-1.42,2.39,2.39,0,0,0,1.4,1.49,2.59,2.59,0,0,0,1.41-1.52,2.51,2.51,0,0,0,1.55,1.45l.34-.51a2.13,2.13,0,0,1-1.54-1.93Zm8.89-2.3c-1.35-.17-2.7-1-2.7-2v-.34h-.72v.34c0,1-1.34,1.79-2.71,2l.25.56a3.9,3.9,0,0,0,2.82-1.64,3.92,3.92,0,0,0,2.81,1.64Zm-1.2,4.6h-3.76v-1h3.76Zm0-1.51h-3.76v-.9h-.69v3h5.14v-3h-.69Zm-5.33-2v.56h6.93v-.56Zm9-2.75h-.7v4.94h.63a18.38,18.38,0,0,0,3.76-.36l-.08-.6a17.74,17.74,0,0,1-3.61.36Zm4.4-.74v7.65h.7V172.2Zm2.5.83v.58h1.41a6.18,6.18,0,0,1-1.66,4.13l.55.39a7,7,0,0,0,1.77-5.1Zm2.33,0v.58H126a7.29,7.29,0,0,1-1.57,4.65l.56.38a8.4,8.4,0,0,0,1.67-5.61Zm4.6,2.33h-1.14V172.2h-.7v7.65h.7v-3.91h1.14Zm1.73,2.16a2.62,2.62,0,0,1,.11-.79,2,2,0,0,1,.43-.64l.54-.56a1.23,1.23,0,0,0,.35-.85,1,1,0,0,0-.22-.68.87.87,0,0,0-.67-.25,1,1,0,0,0-.69.22.76.76,0,0,0-.25.61H130a1.4,1.4,0,0,1,.47-1.09,1.81,1.81,0,0,1,1.24-.42,1.65,1.65,0,0,1,1.22.43,1.51,1.51,0,0,1,.45,1.16,2.1,2.1,0,0,1-.68,1.43l-.45.45a1.39,1.39,0,0,0-.31,1Zm0,1.32a.5.5,0,0,1,.11-.32.46.46,0,0,1,.34-.13.44.44,0,0,1,.34.13.45.45,0,0,1,.12.32.45.45,0,0,1-.12.31.44.44,0,0,1-.34.12.45.45,0,0,1-.34-.12A.49.49,0,0,1,131.13,178.84Z"/><path class="cls-2" d="M63.1,220c0-.23,0-.49,0-.75a6.1,6.1,0,0,0,0-.77h.69V220Zm-1.66,1c-.44,0-.7-.6-.7-1.8s.26-1.8.7-1.8.69.59.69,1.8S61.88,221,61.44,221Zm2.34-3.48h-.91a1.55,1.55,0,0,0-1.43-1.17c-1,0-1.71,1.07-1.71,2.85s.66,2.85,1.71,2.85a1.57,1.57,0,0,0,1.44-1.19h.9v2.43h1V216h-1Zm1.56-1.74v7.86h1.07v-7.86Z"/><path class="cls-2" d="M127.52,221c-.59,0-1-.62-1-1.79s.39-1.79,1-1.79,1,.63,1,1.79S128.1,221,127.52,221Zm0-4.59c-1.19,0-2.06,1.07-2.06,2.8s.87,2.81,2.06,2.81,2.07-1.08,2.07-2.81S128.71,216.38,127.52,216.38Zm5.19,2.41h-1.14v-3h-1.13v7.86h1.13v-4h1.14Zm2.08-2.22h-1.11v5.18h.69a18.63,18.63,0,0,0,3.84-.36l-.11-.94a19.78,19.78,0,0,1-3.31.34Zm3.91-.75v7.86h1.13v-7.86Zm4.15,2.58c0-.8.74-1.27,1.81-1.27s1.83.47,1.83,1.27-.74,1.27-1.83,1.27S142.85,219.2,142.85,218.4Zm2.38,3.46v-1.33c1.39-.16,2.37-1,2.37-2.13s-1.25-2.17-2.94-2.17-2.92.86-2.92,2.17,1,2,2.36,2.13v1.33h-3v.92h7.11v-.92Z"/><rect class="cls-6" x="0.05" y="0.05" width="199.95" height="355.68"/></g></g></svg>