<svg xmlns="http://www.w3.org/2000/svg" viewBox="0 0 200.05 355.78"><defs><style>.cls-1{fill:#fff;}.cls-2{fill:#3e4356;}.cls-3{fill:#303030;}.cls-12,.cls-4,.cls-5,.cls-7{fill:none;}.cls-4{stroke:#e5e5e5;}.cls-5{stroke:#303030;}.cls-6{fill:#e5e5e5;}.cls-7{stroke:#8e8d98;stroke-linecap:round;stroke-linejoin:round;stroke-width:1.5px;}.cls-8{fill:#c4c4c4;}.cls-9{fill-opacity:0.6;}.cls-10{fill:#03a5b0;}.cls-11{fill:#494949;}.cls-12{stroke:#000;stroke-width:0.1px;}</style></defs><g id="Layer_2" data-name="Layer 2"><g id="Layer_1-2" data-name="Layer 1"><rect class="cls-1" x="0.05" y="0.05" width="199.95" height="355.68"/><path class="cls-2" d="M16,36.41A1.65,1.65,0,1,1,17.67,38,1.57,1.57,0,0,1,16,36.41Zm4.14,0a2.34,2.34,0,0,0-2.49-2.36,2.36,2.36,0,1,0,0,4.71A2.34,2.34,0,0,0,20.16,36.41ZM17.34,39.7h-.88v3h6.38V42h-5.5Zm5.07-3.41V33.38h-.87v7h.87V37h1.41v-.73Zm9.07,3h.88V33.38h-.88v1.13H28.79v.68h2.69v1H28.79v.69h2.69ZM30,37.53a19,19,0,0,1-4,.34V34h-.86v4.64h.72a20,20,0,0,0,4.28-.35Zm-.74,4.72c-1.44,0-2.32-.41-2.32-1.11S27.77,40,29.21,40s2.31.42,2.31,1.12S30.65,42.25,29.21,42.25Zm0-2.91c-2,0-3.19.65-3.19,1.8S27.24,43,29.21,43s3.19-.67,3.19-1.81S31.17,39.34,29.21,39.34Zm7.57.75a1.48,1.48,0,1,1,1.5-1.47A1.43,1.43,0,0,1,36.78,40.09Zm0-3.68a2.2,2.2,0,1,0,2.34,2.21A2.18,2.18,0,0,0,36.78,36.41Zm.43-2.91h-.88v1.41H33.92v.71h5.64v-.71H37.21Zm5.7,3.81H41.34V33.39h-.87V43h.87v-4.9h1.57Zm3.39-3h-.84v1.83a4.87,4.87,0,0,1-2.1,4.13l.54.65a4.9,4.9,0,0,0,2-2.94,4.62,4.62,0,0,0,1.89,2.73l.5-.68a4.66,4.66,0,0,1-2-3.92Zm2.52,2.53H47.24v.73h1.58v4.94h.82V33.59h-.82Zm1.94-3.43V43h.83V33.38ZM56,38.74a5.44,5.44,0,0,0,1.32.15,5.61,5.61,0,0,0,1.34-.15V41H56Zm1.32-4.07c1.53,0,2.64.7,2.64,1.77s-1.11,1.77-2.64,1.77-2.64-.7-2.64-1.77S55.74,34.67,57.28,34.67ZM59.5,41V38.4a2.16,2.16,0,0,0,1.26-2C60.76,35,59.32,34,57.28,34s-3.48,1-3.48,2.45a2.18,2.18,0,0,0,1.28,2V41H53v.73h8.69V41Zm3.14.66a.61.61,0,0,1,.14-.42.71.71,0,0,1,.9,0,.62.62,0,0,1,.15.42.57.57,0,0,1-.15.4.71.71,0,0,1-.9,0A.56.56,0,0,1,62.64,41.65ZM74,35.29a20.6,20.6,0,0,1-.36,4.33l.87.09a21.11,21.11,0,0,0,.37-4.42v-.95H68.19v.71H74Zm-2.5,5.6V37.46h-.88v3.43H67.28v.71h8.65v-.71Zm5.67-6.8v.71H80c-.16,1.59-1.26,2.88-3.21,3.68l.42.64c2.42-1,3.68-2.74,3.68-5Zm1.21,6.09H84V43h.88V39.47H78.4ZM84,33.39v2.4H82.74V33.56H81.9V39h.84V36.5H84V39h.85V33.39Zm8.19,3.52a21.35,21.35,0,0,1-4.46.43V33.93h-.88v4.14h.78a22.78,22.78,0,0,0,4.68-.44Zm-3.42,3h4.48V42.1H88.76Zm-.85,2.86h6.18V39.26H87.91Zm5.31-9.44V38.8h.87V33.37ZM18.4,52.15h2.25v-.72H15.31v.72h2.22v1.22A4.9,4.9,0,0,1,15,57.47l.51.71A5.34,5.34,0,0,0,18,55a5.06,5.06,0,0,0,2.51,2.92l.49-.7a4.45,4.45,0,0,1-2.56-3.87Zm3.54-1.69V60h.88V50.46Zm4.46,6.73h4.81v2H26.4Zm-.85,2.69h6.53v-3.4H25.55Zm6.24-5.4A12.61,12.61,0,0,0,32,51.66V51H25.58v.7h5.6a11.3,11.3,0,0,1-.28,2.82H24.47v.7h8.69v-.7Zm8.88-.23H35.93V52.84h4.74Zm.88-3.42h-.88v1.31H35.93V50.83h-.87V55h6.49Zm1.1,5.29H34v.7h3.89V60h.87v-3.2h3.93Zm2.13-1.41h3.13V54H44.78V52h3.55v-.72H43.9v6.41h.74a22.81,22.81,0,0,0,4.37-.3l-.09-.71a22.05,22.05,0,0,1-4.14.29Zm5.69-4.28v3.62h-2v.73h2V60h.88V50.43Zm5.33,1v.72h3.51a6.53,6.53,0,0,1-4,5.33l.48.68a7.2,7.2,0,0,0,4.34-6.73Zm8.38,2.86H62.64V50.44h-.87V60h.87v-5h1.54Zm7.57-3.87v5.13h.88V50.46Zm-5.29,5.6v3.82h6.17V56.06h-.87v1.17H67.33V56.06Zm.87,1.85h4.43v1.27H67.33Zm.16-7A2.22,2.22,0,1,0,70,53.1,2.27,2.27,0,0,0,67.49,50.9Zm0,.73a1.48,1.48,0,1,1-1.64,1.47A1.5,1.5,0,0,1,67.49,51.63Zm11.1-.36c1.57,0,2.46.36,2.46,1s-.89,1-2.46,1-2.46-.36-2.46-1S77,51.27,78.59,51.27Zm0,2.65c2.1,0,3.36-.57,3.36-1.65s-1.26-1.67-3.36-1.67-3.36.59-3.36,1.67S76.49,53.92,78.59,53.92Zm-2.4,4.33h5.62V56.1H75.3v.66H81v.85H75.34v2.3H82.1v-.69H76.19Zm-1.93-3.68v.71h8.66v-.71Zm15.22-3.29h-.86V53a5,5,0,0,1-2.57,4.32l.53.72a5.29,5.29,0,0,0,2.47-3.21,5.24,5.24,0,0,0,2.47,3l.52-.71A4.76,4.76,0,0,1,89.48,53ZM93,50.44V60h.88V50.44Zm8.1,4.69a3.23,3.23,0,0,1-2.33-2.94v-.37h2.11v-.7H95.79v.7h2.15v.38a3.39,3.39,0,0,1-2.4,3.11L96,56a4,4,0,0,0,2.39-2.32,3.82,3.82,0,0,0,2.3,2.13Zm-4.37,2.3h5.36V60H103V56.73H96.77ZM104.42,53H103v-2.5h-.87v5.76H103V53.69h1.42Zm6.33-1.53h-2.39V50.35h-.88v1.08H105.1v.7h5.65Zm-4.28,2.82c0-.62.58-1,1.45-1s1.46.39,1.46,1-.58,1-1.46,1S106.47,54.88,106.47,54.25Zm3.74,0c0-1-.92-1.66-2.29-1.66s-2.28.65-2.28,1.66.92,1.68,2.28,1.68S110.21,55.28,110.21,54.25Zm1.42,4.93h-4.29V58.12h4.29Zm0-1.74h-4.29v-1h-.86v3.45h6V56.43h-.87Zm2.29-4.56H112.5V50.44h-.88V56h.88V53.61h1.42ZM116,51.37h-.88v6.17H116a22.9,22.9,0,0,0,4.7-.45l-.1-.75a22.6,22.6,0,0,1-4.51.45Zm5.49-.93V60h.88V50.44Zm3.81,1.65h3.57v-.73h-4.45v6.28h.76a22.47,22.47,0,0,0,4.52-.34l-.09-.72a23.8,23.8,0,0,1-4.31.32ZM133,54.22h-1.58V50.44h-.88V60h.88V55H133Zm.73,4.5a.6.6,0,0,1,.15-.42.68.68,0,0,1,.9,0,.6.6,0,0,1,.15.42.57.57,0,0,1-.15.4.71.71,0,0,1-.9,0A.57.57,0,0,1,133.73,58.72Z"/><path class="cls-2" d="M18.56,82.13V87.4H19V82.13Zm-2.29.4c-.78,0-1.34.72-1.34,1.84s.56,1.84,1.34,1.84,1.33-.72,1.33-1.84S17.05,82.53,16.27,82.53Zm0,.44c.51,0,.87.55.87,1.4s-.36,1.41-.87,1.41-.88-.55-.88-1.41S15.75,83,16.27,83Zm7.37.17H20.57v1.25h3.66V84H21V83.5h3.07V82.26H20.55v.37h3.09Zm-2.58,3h2.59v.83H21.06Zm-.47,1.22h3.53v-1.6H20.59ZM20,84.84v.39h4.76v-.39Z"/><path class="cls-2" d="M15.2,147.09a2.66,2.66,0,0,0,1.92-1.21A2.6,2.6,0,0,0,19,147.09l.19-.39c-.93-.13-1.84-.73-1.84-1.43v0H19v-.38H15.19v.38h1.66v0c0,.7-.91,1.3-1.83,1.43Zm4.29.44H14.74v.39h2.12v1.87h.48v-1.87H19.5Zm4.78-3h-.48v3.78h.48Zm-2.05,2.52H20.7v-1.68h1.52Zm.47-2.06H20.23v2.44h2.46Zm-1.32,4.24V148h-.48v1.66h3.54v-.38Zm8-3.09H26.26v-1h3.09v-.39H25.77v1.79h3.61Zm-1.83,3.27c-.83,0-1.31-.21-1.31-.58s.48-.57,1.31-.57,1.32.2,1.32.57S28.37,149.41,27.55,149.41Zm0-1.53c-1.12,0-1.8.34-1.8,1s.68.95,1.8.95,1.8-.34,1.8-.95S28.67,147.88,27.55,147.88ZM25.18,147v.4h4.76V147Zm5.74,1.58H34.1v1.13h.49v-1.52H30.92ZM33,147.42v-.55h1.64v-.38H31.48v-.55h3.08v-1.28H31V145h3.08v.54H31v1.29h1.53v.55H30.39v.39h4.78v-.39Zm4.75-.28H36.36v-.95h1.42Zm.47-.73h1.22v2H40v-3.89h-.48V146H38.25v-1.13h-.47v.93H36.36v-.93h-.48v2.65h2.37Zm-1.2,2.87V148h-.48v1.63h3.51v-.39Zm8.29-4H43.46v-.69H43v.69H41.07v.39h4.27ZM42,147.05c0-.39.47-.63,1.24-.63s1.23.24,1.23.63-.47.62-1.23.62S42,147.44,42,147.05Zm1.48,1.73V148c.92-.06,1.47-.41,1.47-1s-.66-1-1.71-1-1.73.36-1.73,1,.56.94,1.49,1v.74H40.84v.39h4.77v-.39Z"/><path class="cls-2" d="M15.83,192.49h-.49v1.45H19v-.39H15.83Zm0-2.45H18.4v.68H15.84Zm1.52,1.63v-.56h1.51V189H18.4v.67H15.84V189h-.48v2.11h1.52v.56H14.73v.39h4.76v-.39Zm6.91-2.87h-.48v3.84h.48Zm-3.72,1.66a.9.9,0,1,1,.9.88A.86.86,0,0,1,20.55,190.46Zm2.27,0a1.37,1.37,0,1,0-1.37,1.3A1.3,1.3,0,0,0,22.82,190.46Zm-1.45,3.09v-1.3h-.48v1.69h3.54v-.39Zm8.12-4.75H29v3.84h.48Zm-3.72,1.66a.91.91,0,1,1,.9.88A.86.86,0,0,1,25.77,190.46Zm2.27,0a1.37,1.37,0,1,0-1.37,1.3A1.3,1.3,0,0,0,28,190.46Zm-1.45,3.09v-1.3h-.48v1.69h3.54v-.39ZM30.84,191a2.51,2.51,0,0,0,1.94-1.06A2.51,2.51,0,0,0,34.72,191l.17-.38c-.93-.1-1.78-.56-1.8-1.15h1.64v-.39H30.84v.39h1.63c0,.59-.87,1.05-1.8,1.15Zm1.93,2.69c-.82,0-1.31-.21-1.31-.57s.49-.58,1.31-.58,1.32.21,1.32.58S33.59,193.67,32.77,193.67Zm0-1.53c-1.12,0-1.8.35-1.8,1s.68,1,1.8,1,1.8-.34,1.8-1S33.89,192.14,32.77,192.14Zm-2.37-.84v.39h4.75v-.39Z"/><path class="cls-2" d="M29.49,250.79c-.87-.13-1.72-.72-1.72-1.39v-.26h-.46v.26c0,.69-.84,1.26-1.71,1.39l.17.35A2.44,2.44,0,0,0,27.54,250a2.48,2.48,0,0,0,1.77,1.12Zm.21.87H25.38V252h1.93v1.74h.44V252H29.7ZM34,249h-.43v3.51H34Zm-1,2.38a1.78,1.78,0,0,1-1.2-1.63v-.49h-.43v.49a1.87,1.87,0,0,1-1.2,1.72l.23.35a2.1,2.1,0,0,0,1.19-1.28,2.06,2.06,0,0,0,1.18,1.19Zm-1.6,1.94v-1.14H31v1.49h3.22v-.35Zm6.3-3.74H36.51V249h-.44v.58H34.88v.36H37.7Zm-2.14,1.51c0-.33.3-.55.73-.55s.73.22.73.55-.3.55-.73.55S35.56,251.39,35.56,251.06Zm1.88,0c0-.54-.47-.89-1.15-.89s-1.14.35-1.14.89.46.89,1.14.89S37.44,251.6,37.44,251.06ZM36,252.27H35.6v1.37h3.19v-.35H36Zm2.54-1.72V249h-.44v3.59h.44v-1.65h.7v-.36Zm2.85,2.4h1.8v.41h-2.3v-3.79h.5Zm3.33-1.28a2.48,2.48,0,0,1-.94-.46.88.88,0,0,1-.29-.66.9.9,0,0,1,.36-.74,1.4,1.4,0,0,1,.93-.3,1.52,1.52,0,0,1,.69.15,1.11,1.11,0,0,1,.65,1h-.51a.7.7,0,0,0-.21-.54.92.92,0,0,0-.62-.2.91.91,0,0,0-.58.17.54.54,0,0,0-.21.45.5.5,0,0,0,.2.39,1.77,1.77,0,0,0,.67.29,3,3,0,0,1,.74.3,1,1,0,0,1,.39.37.91.91,0,0,1,.13.5.87.87,0,0,1-.35.74,1.51,1.51,0,0,1-1,.28,1.72,1.72,0,0,1-.72-.15,1.3,1.3,0,0,1-.53-.41,1,1,0,0,1-.18-.59h.5a.67.67,0,0,0,.25.54,1.12,1.12,0,0,0,.68.2,1,1,0,0,0,.61-.16.54.54,0,0,0,.21-.44.5.5,0,0,0-.19-.43A2.35,2.35,0,0,0,44.76,251.67Zm2.53-2.1,1.24,3.09,1.24-3.09h.65v3.79h-.5v-1.48l0-1.59-1.25,3.07h-.38l-1.24-3.07,0,1.59v1.48h-.5v-3.79Zm4.78,2.73c-.38,0-.62-.49-.62-1.27s.24-1.26.62-1.26.62.49.62,1.26S52.44,252.3,52.07,252.3Zm1.62-1.47h-.61c0-.9-.43-1.46-1-1.46s-1,.64-1,1.66.4,1.67,1,1.67,1-.58,1-1.51h.61v2.33h.41v-4.45h-.41Zm1-1.86v4.78h.41V249Zm3.82.81h1.19v1.57H58.46Zm.82,3v-1.1h1.54v-.35h-.73v-1.57h.74v-.35H57.28v.35H58v1.57h-.73v.35h1.54v1.1H56.9v.35h4.33v-.35Zm5.2-3.33H63.29v-.55h-.44v.55H61.66v.36h2.82Zm-2.14,1.45c0-.32.29-.52.73-.52s.73.2.73.52-.3.52-.73.52S62.34,251.23,62.34,250.92Zm1.87,0c0-.52-.46-.85-1.14-.85s-1.14.33-1.14.85.45.85,1.14.85S64.21,251.44,64.21,250.92Zm-1.43,1.55h2.14v.87H62.78Zm-.43,1.22h3v-1.57h-3Zm3.71-3.45h-.71V249h-.43v2.88h.43V250.6h.71ZM70.3,249h-.43v3.58h.43Zm-.82,2.48c-.41.05-.84.08-1.28.1v-.66h1v-.35H67.27v-.91h1.84v-.35H66.84v1.61h.92v.67l-1.35,0,.06.35a23.22,23.22,0,0,0,3-.17Zm-1.83,1.84v-1h-.44v1.33h3.25v-.35Zm4.83-3.7v.35h1.43a2.87,2.87,0,0,1-1.61,2.47l.25.32a3.36,3.36,0,0,0,1.8-3.14Zm3.46-.62v1.92h-.66V249.1h-.41v4.41h.41v-2.26h.66v2.5h.42V249Zm5,0h-.44v3.5H81Zm-3.39,1.51a.78.78,0,0,1,.82-.8.8.8,0,1,1,0,1.6A.78.78,0,0,1,77.58,250.48Zm2.07,0a1.25,1.25,0,1,0-1.25,1.18A1.18,1.18,0,0,0,79.65,250.48Zm-1.32,2.81v-1.18h-.44v1.53h3.22v-.35Zm6-3.08v.36h1v1.25h.44V249h-.44v1.24Zm.27,1.09a1.66,1.66,0,0,1-1.16-1.46v-.17h1v-.35H81.94v.35H83v.17a1.77,1.77,0,0,1-1.2,1.59l.23.35a2.06,2.06,0,0,0,1.2-1.22,2,2,0,0,0,1.15,1.08Zm-.46,2.11c-.72,0-1.15-.2-1.15-.55s.43-.55,1.15-.55,1.16.2,1.16.55S84.87,253.41,84.15,253.41Zm0-1.44c-1,0-1.59.33-1.59.89s.61.89,1.59.89,1.6-.32,1.6-.89S85.13,252,84.15,252Zm3.33-1.45h2.44v.88H87.48Zm1.44,2.26v-1h1.43v-2.44h-.43v.85H87.48v-.85h-.43v2.44h1.43v1H86.54v.36h4.33v-.36Zm7-3.81v4.79h.44V249Zm-2.08.37c-.71,0-1.22.65-1.22,1.66s.51,1.67,1.22,1.67,1.21-.65,1.21-1.67S94.55,249.34,93.84,249.34Zm0,.39c.46,0,.79.5.79,1.27s-.33,1.28-.79,1.28-.8-.5-.8-1.28S93.37,249.73,93.84,249.73Zm5.51,3.68c-.75,0-1.19-.19-1.19-.51s.44-.51,1.19-.51,1.2.18,1.2.51S100.1,253.41,99.35,253.41Zm0-1.37c-1,0-1.64.31-1.64.86s.62.85,1.64.85,1.64-.3,1.64-.85S100.38,252,99.35,252Zm-.66-1.26a4.45,4.45,0,0,0,1.33,0v.56H98.69Zm-.57-.84c0-.34.47-.55,1.23-.55s1.23.21,1.23.55-.47.55-1.23.55S98.12,250.28,98.12,249.94Zm2.33,1.4v-.68a.79.79,0,0,0,.58-.72c0-.56-.64-.89-1.68-.89s-1.68.33-1.68.89a.78.78,0,0,0,.59.72v.68H97.19v.35h4.33v-.35ZM107,249h-.44v2.74H107Zm-1.86,1.91h-1.38v-1.26h1.38Zm.43-1.6h-2.24v1.95h2.24Zm1.54,3.1V252h-1.4v-.46h-.44V252h-1.4v.34h1.39c0,.47-.77.92-1.58,1l.14.34a2.45,2.45,0,0,0,1.67-.88,2.39,2.39,0,0,0,1.64.88l.15-.34c-.82-.1-1.56-.57-1.56-1Zm3.28-2.5h.86v-.35h-2.18v.35h.9v.44a2.49,2.49,0,0,1-1,2.15l.27.32a2.53,2.53,0,0,0,1-1.51,2.23,2.23,0,0,0,1,1.39l.26-.32a2.31,2.31,0,0,1-1-2Zm1.28.8h-.79V251h.79v2.46h.42v-4.43h-.42Zm1-1.72v4.79h.42V249Zm4.45.66a4.23,4.23,0,0,1-.13,1.21l.43,0a4.53,4.53,0,0,0,.13-1.26v-.41h-3.26v.35h2.83Zm-1.2,3.78c-.75,0-1.23-.2-1.23-.53s.48-.54,1.23-.54,1.23.2,1.23.54S116.65,253.4,115.9,253.4Zm0-1.41c-1,0-1.66.33-1.66.88s.64.88,1.66.88,1.67-.33,1.67-.88S116.92,252,115.9,252Zm.07-.79v-.92h-.44v.92h-1.76v.35h4.3v-.35Zm4.7,2.21c-.76,0-1.2-.19-1.2-.52s.44-.53,1.2-.53,1.19.19,1.19.53S121.41,253.41,120.67,253.41Zm0-1.39c-1,0-1.64.31-1.64.87s.61.86,1.64.86,1.63-.31,1.63-.86S121.68,252,120.67,252Zm.22-.69v-.55h1.44v-.36h-2.85v-.88h2.81v-.35h-3.24v1.59h1.4v.55h-2v.35h4.33v-.35Zm3.91-2a1.13,1.13,0,1,0,1.28,1.12A1.16,1.16,0,0,0,124.8,249.32Zm0,.37a.76.76,0,1,1-.85.75A.77.77,0,0,1,124.8,249.69Zm1.91-.72v4.79h.44V249Zm-3.38,3.74a17.29,17.29,0,0,0,3.1-.21l0-.32a21.59,21.59,0,0,1-3.12.16Zm9.65-2.28h-2.84v-.92H133v-.35H129.7v1.63H133Zm-1.66,3c-.75,0-1.2-.18-1.2-.52s.45-.52,1.2-.52,1.19.19,1.19.52S132.06,253.4,131.32,253.4Zm0-1.38c-1,0-1.64.31-1.64.86s.62.87,1.64.87,1.64-.31,1.64-.87S132.34,252,131.32,252Zm-2.16-.78v.37h4.33v-.37Zm6.3-1.92a1.13,1.13,0,1,0,1.28,1.12A1.16,1.16,0,0,0,135.46,249.32Zm0,.37a.76.76,0,1,1,0,1.51.76.76,0,1,1,0-1.51Zm1.91-.72v4.79h.43V249ZM134,252.71a17.41,17.41,0,0,0,3.1-.21l0-.32a21.39,21.39,0,0,1-3.11.16Zm6.34-2.23a.82.82,0,1,1,.82.8A.78.78,0,0,1,140.33,250.48Zm2.07,0a1.25,1.25,0,1,0-1.25,1.18A1.18,1.18,0,0,0,142.4,250.48ZM141,252.13h-.44v1.51h3.19v-.35H141Zm2.54-1.71V249h-.44v3.52h.44v-1.7h.7v-.37Zm1.7-.87h-.44v3h.31a9,9,0,0,0,1.71-.15l0-.38a9,9,0,0,1-1.54.15Zm3-.58v1.94h-.68v-1.84h-.41v4.44h.41v-2.23h.68v2.47h.42V249Zm2.71.41h-.43v.86a2.53,2.53,0,0,1-1.23,2.14l.26.35a2.65,2.65,0,0,0,1.19-1.58,2.69,2.69,0,0,0,1.16,1.49l.27-.35a2.44,2.44,0,0,1-1.22-2Zm2.87,1.53H153V249h-.44v4.78H153v-2.48h.79Zm3.11-1.4H155.7v-.59h-.44v.59h-1.19v.35h2.82Zm-2.14,1.43c0-.31.29-.51.73-.51s.73.2.73.51-.3.52-.73.52S154.75,251.26,154.75,250.94Zm1.87,0c0-.51-.46-.84-1.14-.84s-1.14.33-1.14.84.45.85,1.14.85S156.62,251.46,156.62,250.94Zm-.35,2.47c-.7,0-1.13-.18-1.13-.49s.43-.49,1.13-.49,1.12.18,1.12.49S157,253.41,156.27,253.41Zm0-1.32c-1,0-1.56.3-1.56.83s.59.83,1.56.83,1.55-.31,1.55-.83S157.23,252.09,156.27,252.09Zm1.49-1.79V249h-.43V252h.43v-1.38h.71v-.36Zm3.2-.92c.78,0,1.23.18,1.23.5s-.45.5-1.23.5-1.23-.18-1.23-.5S160.17,249.38,161,249.38Zm0,1.33c1,0,1.68-.29,1.68-.83s-.63-.83-1.68-.83-1.68.29-1.68.83S159.91,250.71,161,250.71Zm-1.2,2.16h2.81v-1.08h-3.25v.33h2.82v.43h-2.81v1.15h3.38v-.34h-3Zm-1-1.84v.35h4.33V251Zm8.76-1.63H166.4v-.46H166v.46H164.8v.34h2.75Zm-2.07,1.22c0-.25.27-.4.7-.4s.7.15.7.4-.28.41-.7.41S165.48,250.87,165.48,250.62Zm2.21.92c-.41.06-.85.09-1.29.12v-.34c.55,0,.89-.31.89-.7s-.44-.71-1.11-.71-1.12.27-1.12.71.35.65.9.7v.35c-.46,0-.89,0-1.27,0l0,.35a19.09,19.09,0,0,0,3-.19Zm-2.42,1.22H168v1h.43v-1.33h-3.14Zm3.84-2.34h-.7V249H168v3.21h.43v-1.4h.7Zm4.27-1.45h-.44v3.5h.44ZM170,250.48a.78.78,0,0,1,.82-.8.8.8,0,1,1,0,1.6A.78.78,0,0,1,170,250.48Zm2.07,0a1.25,1.25,0,1,0-1.25,1.18A1.18,1.18,0,0,0,172.06,250.48Zm-1.32,2.81v-1.18h-.44v1.53h3.22v-.35Zm8.54-4.32h-.43v2.74h.43Zm-1.86,1.91H176v-1.26h1.38Zm.43-1.6h-2.24v1.95h2.24Zm1.55,3.1V252H178v-.46h-.44V252h-1.4v.34h1.39c0,.47-.76.92-1.58,1l.14.34a2.42,2.42,0,0,0,1.67-.88,2.44,2.44,0,0,0,1.65.88l.15-.34c-.83-.1-1.57-.57-1.57-1Zm-151.86,8c-.76,0-1.2-.18-1.2-.52s.44-.52,1.2-.52,1.19.18,1.19.52S28.28,260.34,27.54,260.34Zm0-1.38c-1,0-1.64.31-1.64.86s.61.86,1.64.86,1.63-.3,1.63-.86S28.55,259,27.54,259Zm.22-.7v-.55H29.2v-.35H26.35v-.89h2.81v-.35H25.92v1.59h1.4v.55H25.37v.36H29.7v-.36Zm3.91-2A1.13,1.13,0,1,0,33,257.38,1.16,1.16,0,0,0,31.67,256.25Zm0,.38a.76.76,0,1,1,0,1.5.76.76,0,1,1,0-1.5Zm1.91-.73v4.8H34v-4.8Zm-3.38,3.74a18.19,18.19,0,0,0,3.1-.2l0-.33a21.68,21.68,0,0,1-3.12.17Zm7.5-3.25H36.51v-.54h-.44v.54H34.88v.35H37.7Zm-2.14,1.41c0-.3.29-.5.73-.5s.73.2.73.5-.29.51-.73.51S35.56,258.12,35.56,257.8Zm1.88,0c0-.5-.47-.83-1.15-.83s-1.14.33-1.14.83.46.84,1.14.84S37.44,258.32,37.44,257.8Zm.71,2.47H36v-.53h2.15Zm0-.87H36v-.51h-.43v1.73h3v-1.73h-.43Zm1.14-2.28h-.71V255.9h-.44v2.78h.44v-1.2h.71Zm1.06-.76h-.44v3.09h.39a11.4,11.4,0,0,0,2.35-.23l0-.37a11.2,11.2,0,0,1-2.25.22Zm2.74-.46v4.78h.44V255.9Zm1.91.82h1.78v-.36H44.56v3.14h.38a11.24,11.24,0,0,0,2.26-.17l-.05-.36a11.77,11.77,0,0,1-2.15.16Zm3.83,1.07H48V255.9H47.6v4.8H48v-2.55h.79ZM49.2,260a.28.28,0,0,1,.07-.21.26.26,0,0,1,.22-.08.28.28,0,0,1,.23.08.29.29,0,0,1,.08.21.3.3,0,0,1-.08.2.32.32,0,0,1-.23.08.29.29,0,0,1-.22-.08A.29.29,0,0,1,49.2,260Z"/><path class="cls-3" d="M26.49,270.35H26v1.46h3.62v-.4H26.49Zm0-2.44h2.56v.68H26.5ZM28,269.54V269h1.52v-2.1h-.48v.67H26.5v-.67H26V269h1.51v.57H25.4v.39h4.76v-.39Zm6.92-2.87h-.48v3.84h.48Zm-3.73,1.65a.91.91,0,0,1,1.81,0,.91.91,0,0,1-1.81,0Zm2.28,0a1.38,1.38,0,1,0-1.38,1.3A1.3,1.3,0,0,0,33.49,268.32ZM32,271.41v-1.29h-.49v1.69H35.1v-.4ZM39,267.14H37.7v-.51h-.48v.51H36v.37h3Zm-2.28,1.34c0-.28.3-.45.77-.45s.77.17.77.45-.3.45-.77.45S36.69,268.76,36.69,268.48Zm2.44,1a13.33,13.33,0,0,1-1.43.13v-.37c.61-.06,1-.34,1-.77s-.49-.78-1.23-.78-1.23.3-1.23.78.38.72,1,.77v.39h-1.4l0,.39a20.39,20.39,0,0,0,3.29-.2Zm-2.67,1.35h3v1.08h.48v-1.46H36.46Zm4.23-2.58h-.77v-1.59h-.48v3.52h.48v-1.53h.77Zm4.69-1.59H44.9v3.84h.48Zm-3.72,1.65a.9.9,0,0,1,1.8,0,.9.9,0,0,1-1.8,0Zm2.27,0a1.37,1.37,0,1,0-1.38,1.3A1.3,1.3,0,0,0,43.93,268.32Zm-1.45,3.09v-1.29H42v1.69h3.54v-.4Zm5.65-4.3h-.48v.95a2.77,2.77,0,0,1-1.37,2.37l.3.38a3,3,0,0,0,1.31-1.76,2.82,2.82,0,0,0,1.32,1.67l.28-.39a2.6,2.6,0,0,1-1.36-2.27Zm2-.45v1.79H48.92v.39h1.22v3.09h.48v-5.27Zm5.19,0v5.27h.48v-5.27Zm-3.53.45v3.55h2.48v-3.55h-.47v1.39H52.28v-1.39Zm.48,1.77h1.53v1.38H52.28Zm9,.43c-.92-.18-1.92-1-1.92-1.87V267h-.5v.41c0,.89-1,1.69-1.91,1.87l.21.4a2.89,2.89,0,0,0,2-1.52A2.89,2.89,0,0,0,61,269.71Zm-4.53,1.51v.4H61.5v-.4Zm10.32-4.16v5.28h.48v-5.28Zm-2.29.41c-.78,0-1.34.71-1.34,1.83s.56,1.84,1.34,1.84,1.34-.72,1.34-1.84S65.54,267.07,64.76,267.07Zm0,.43c.51,0,.87.55.87,1.4s-.36,1.41-.87,1.41-.88-.55-.88-1.41S64.24,267.5,64.76,267.5Zm6.06,4.05c-.82,0-1.31-.21-1.31-.56s.49-.57,1.31-.57,1.32.21,1.32.57S71.64,271.55,70.82,271.55Zm0-1.5c-1.12,0-1.8.33-1.8.94s.68.93,1.8.93,1.8-.33,1.8-.93S72,270.05,70.82,270.05Zm-.72-1.4a4,4,0,0,0,.72.06,4.18,4.18,0,0,0,.74-.06v.62H70.1Zm-.63-.91c0-.39.51-.61,1.35-.61s1.36.22,1.36.61-.52.6-1.36.6S69.47,268.11,69.47,267.74ZM72,269.27v-.75a.85.85,0,0,0,.64-.78c0-.62-.7-1-1.85-1s-1.84.36-1.84,1a.86.86,0,0,0,.64.79v.74H68.44v.38h4.77v-.38Zm4.4-.36a7.36,7.36,0,0,0,.14-1.56v-.28H74v.4H76.1a7,7,0,0,1-.14,1.39Zm.5.32c-.53.07-1.13.11-1.71.14v-1.12h-.47v1.13l-1.12,0,.05.39a21.46,21.46,0,0,0,3.29-.21Zm-2,1h-.48v1.55h3.49v-.4h-3Zm2.84-1.89v-1.71h-.48v4h.48v-1.86h.75v-.4Zm5,2.16h.48v-3.86h-.48v.88h-1v.39h1v.79h-1v.39h1Zm-1.06-1.23a11.22,11.22,0,0,1-2.1.14v-.87h1.78V267H79.09v.38h1.79v.78H79.11v1.63h.38a11.68,11.68,0,0,0,2.23-.14Zm-1.38,2.1v-1.15h-.48v1.53h3.56v-.38Zm6.86-4.28h-.48v.94a2.8,2.8,0,0,1-1.36,2.36l.29.38a2.9,2.9,0,0,0,1.31-1.74,2.94,2.94,0,0,0,1.27,1.64l.3-.38a2.66,2.66,0,0,1-1.33-2.26Zm3.15,1.68h-.87v-2.13H89v5.25h.48V269.2h.87Zm3.42-1.55H92.42v-.64h-.48v.64H90.63v.39h3.1Zm-2.35,1.58c0-.34.32-.56.8-.56s.8.22.8.56-.32.57-.8.57S91.38,269.18,91.38,268.83Zm2.06,0c0-.56-.51-.92-1.26-.92s-1.26.36-1.26.92.51.94,1.26.94S93.44,269.4,93.44,268.83Zm-.4,2.72c-.76,0-1.23-.2-1.23-.54s.47-.54,1.23-.54,1.24.2,1.24.54S93.81,271.55,93,271.55Zm0-1.45c-1.06,0-1.71.33-1.71.91s.65.91,1.71.91,1.72-.34,1.72-.91S94.1,270.1,93,270.1Zm1.65-2v-1.46h-.48v3.39h.48v-1.53h.78v-.4Zm4.19-.52h1.17v-.4H97.2v.4h1.21v.67A2.75,2.75,0,0,1,97,270.53l.28.39a3,3,0,0,0,1.35-1.75,2.84,2.84,0,0,0,1.32,1.62l.27-.39a2.54,2.54,0,0,1-1.36-2.13Zm3.15,1.19h-.87v-2.12h-.48v5.25h.48v-2.73H102Zm1.86-1.63h-.46v1a2.67,2.67,0,0,1-1.16,2.27l.3.36a2.64,2.64,0,0,0,1.09-1.61,2.56,2.56,0,0,0,1,1.5l.28-.38a2.53,2.53,0,0,1-1.09-2.15Zm1.39,1.39h-.87v.4h.87v2.72h.45v-4.89h-.45Zm1.06-1.89v5.26h.46v-5.26Zm2.91,3.69a.81.81,0,1,1,.85-.81A.8.8,0,0,1,109.25,270.35Zm0-2a1.21,1.21,0,1,0,1.31,1.21A1.2,1.2,0,0,0,109.25,268.33Zm.24-1.62H109v.8h-1.34v.4h3.16v-.4h-1.34Zm1.89,0v5.26h.48v-5.26Zm2.43,1.71h2.69v1h-2.69Zm1.59,2.49v-1.14H117V267h-.47V268h-2.69V267h-.47v2.68h1.57v1.14h-2.14v.39h4.77v-.39Zm2.9-3.63v.39h2a3.46,3.46,0,0,1-2.22,2.93l.26.39a3.93,3.93,0,0,0,2.45-3.71Zm3.53-.57v5.26h.48v-5.26Z"/><path class="cls-2" d="M17.16,249.59a.27.27,0,0,1-.21-.08.36.36,0,0,1-.07-.24A.35.35,0,0,1,17,249a.24.24,0,0,1,.21-.08.27.27,0,0,1,.23.08.42.42,0,0,1,.07.23.43.43,0,0,1-.07.24A.3.3,0,0,1,17.16,249.59Zm-1.61,3.23-.25-.24,1.64-1.66-1.64-1.64.24-.25,1.65,1.64L18.83,249l.25.25-1.64,1.64,1.63,1.66-.25.25-1.63-1.65Zm0-1.57a.31.31,0,0,1-.21-.07.4.4,0,0,1,0-.48.31.31,0,0,1,.21-.07.28.28,0,0,1,.21.07.4.4,0,0,1,0,.48A.28.28,0,0,1,15.51,251.25Zm3.35,0a.31.31,0,0,1-.21-.07.4.4,0,0,1,0-.48.31.31,0,0,1,.21-.07.28.28,0,0,1,.21.07.4.4,0,0,1,0,.48A.28.28,0,0,1,18.86,251.25Zm-1.7,1.65a.24.24,0,0,1-.21-.08.36.36,0,0,1-.07-.24.35.35,0,0,1,.07-.23.27.27,0,0,1,.21-.08.3.3,0,0,1,.23.08.42.42,0,0,1,.07.23.43.43,0,0,1-.07.24A.27.27,0,0,1,17.16,252.9Z"/><path class="cls-2" d="M17.82,164.91a1.14,1.14,0,0,1-.19.66,1.37,1.37,0,0,1-.53.45,1.4,1.4,0,0,1,.61.48,1.26,1.26,0,0,1,.23.73,1.31,1.31,0,0,1-.44,1,1.64,1.64,0,0,1-1.13.37,1.68,1.68,0,0,1-1.14-.37,1.3,1.3,0,0,1-.43-1,1.26,1.26,0,0,1,.22-.73,1.4,1.4,0,0,1,.61-.48,1.27,1.27,0,0,1-.52-.45,1.14,1.14,0,0,1-.19-.66,1.25,1.25,0,0,1,.4-1,1.45,1.45,0,0,1,1.05-.37,1.48,1.48,0,0,1,1.05.37A1.25,1.25,0,0,1,17.82,164.91Zm-.51,2.3a.92.92,0,0,0-.26-.67,1,1,0,0,0-.69-.26.88.88,0,0,0-.93.93.86.86,0,0,0,.25.66.93.93,0,0,0,.69.24,1,1,0,0,0,.69-.24A.86.86,0,0,0,17.31,167.21Zm-.94-3.14a.81.81,0,0,0-.6.23.86.86,0,0,0-.23.62.84.84,0,0,0,.23.61.9.9,0,0,0,1.2,0,.84.84,0,0,0,.23-.61.82.82,0,0,0-.24-.61A.78.78,0,0,0,16.37,164.07Zm5.24,2.38a2.88,2.88,0,0,1-.38,1.64,1.32,1.32,0,0,1-1.17.53,1.34,1.34,0,0,1-1.17-.52,2.75,2.75,0,0,1-.39-1.56v-.84a2.8,2.8,0,0,1,.37-1.61,1.36,1.36,0,0,1,1.18-.53,1.36,1.36,0,0,1,1.17.51,2.72,2.72,0,0,1,.39,1.57ZM21,165.6a2.29,2.29,0,0,0-.22-1.16.79.79,0,0,0-.71-.37.77.77,0,0,0-.7.37,2.24,2.24,0,0,0-.23,1.11v1a2.36,2.36,0,0,0,.23,1.18.77.77,0,0,0,.71.38.76.76,0,0,0,.69-.36,2.15,2.15,0,0,0,.23-1.13Zm4.31.85a2.88,2.88,0,0,1-.37,1.64,1.57,1.57,0,0,1-2.34,0,2.67,2.67,0,0,1-.4-1.56v-.84a2.79,2.79,0,0,1,.38-1.61,1.59,1.59,0,0,1,2.35,0,2.65,2.65,0,0,1,.38,1.57Zm-.62-.85a2.27,2.27,0,0,0-.23-1.16.85.85,0,0,0-1.4,0,2.14,2.14,0,0,0-.23,1.11v1a2.36,2.36,0,0,0,.23,1.18.84.84,0,0,0,1.39,0,2.23,2.23,0,0,0,.24-1.13Zm2.13.19h.47a1.07,1.07,0,0,0,.7-.24.87.87,0,0,0-.61-1.48.88.88,0,0,0-.65.24.81.81,0,0,0-.24.61h-.63a1.24,1.24,0,0,1,.43-1,1.55,1.55,0,0,1,1.09-.39,1.52,1.52,0,0,1,1.09.37,1.3,1.3,0,0,1,.4,1,1.08,1.08,0,0,1-.21.63,1.28,1.28,0,0,1-.57.45,1.24,1.24,0,0,1,.63.42,1.19,1.19,0,0,1,.22.73,1.36,1.36,0,0,1-.43,1.06,1.89,1.89,0,0,1-2.26,0,1.24,1.24,0,0,1-.43-1h.63a.8.8,0,0,0,.25.62,1,1,0,0,0,.68.23,1,1,0,0,0,.7-.23.92.92,0,0,0,.24-.68.81.81,0,0,0-.27-.66,1.08,1.08,0,0,0-.76-.24H26.8Zm4.83,2.77H31v-4.18l-1.26.47v-.57l1.79-.68h.1Zm4.62-3.65a1.14,1.14,0,0,1-.2.66,1.34,1.34,0,0,1-.52.45,1.46,1.46,0,0,1,.61.48,1.26,1.26,0,0,1,.22.73,1.3,1.3,0,0,1-.43,1,1.93,1.93,0,0,1-2.27,0,1.3,1.3,0,0,1-.43-1,1.26,1.26,0,0,1,.22-.73,1.31,1.31,0,0,1,.6-.48,1.34,1.34,0,0,1-.52-.45,1.22,1.22,0,0,1-.19-.66,1.28,1.28,0,0,1,.4-1,1.69,1.69,0,0,1,2.11,0A1.28,1.28,0,0,1,36.25,164.91Zm-.51,2.3a.89.89,0,0,0-.27-.67.93.93,0,0,0-.68-.26.89.89,0,0,0-.68.26,1,1,0,0,0,0,1.33,1.13,1.13,0,0,0,1.39,0A.9.9,0,0,0,35.74,167.21Zm-.94-3.14a.81.81,0,0,0-.6.23.86.86,0,0,0-.23.62.83.83,0,0,0,.22.61.8.8,0,0,0,.61.23.78.78,0,0,0,.6-.23.83.83,0,0,0,.22-.61.85.85,0,0,0-.23-.61A.79.79,0,0,0,34.8,164.07Z"/><path class="cls-2" d="M30.42,122.53h1.2v-.4H28.75v.4h1.19v.61a2.75,2.75,0,0,1-1.38,2.3l.28.38a3,3,0,0,0,1.34-1.77,2.88,2.88,0,0,0,1.33,1.66l.29-.38a2.61,2.61,0,0,1-1.38-2.19Zm2-.93v1.91H31.32v.39h1.14v3h.48V121.6ZM38,123.18h-3.1v-1.39h-.48v1.78H38Zm-3.13,2h-.48v1.54h3.64v-.39H34.91Zm-1.09-.91v.38h4.77v-.38Zm7.27-1.11a.95.95,0,0,1,1.88,0,.95.95,0,0,1-1.88,0Zm1.17,1.22a1.23,1.23,0,0,0,1.18-1.22,1.42,1.42,0,0,0-2.82,0,1.23,1.23,0,0,0,1.16,1.22v.91c-.51,0-1,0-1.42,0l.06.41a19.93,19.93,0,0,0,3.4-.23l0-.36c-.48.07-1,.12-1.52.15Zm1.87-2.8v5.28h.48v-5.28Zm6.19,2.53v-.4h-.75a6.73,6.73,0,0,0,.13-1.49v-.38H46.15v.38h3.08a6.26,6.26,0,0,1-.14,1.49H45.54v.4h2.14v1H46.05v.39h3.2v1.38h.48v-1.77H48.17v-1Zm4.76-2.52H54.6v3.84h.48Zm-3.72,1.66a.9.9,0,1,1,.89.88A.85.85,0,0,1,51.36,123.26Zm2.27,0a1.37,1.37,0,1,0-1.38,1.3A1.3,1.3,0,0,0,53.63,123.26Zm-1.45,3.09v-1.3H51.7v1.69h3.54v-.39Zm7.64-4.75v2.82h.48V121.6Zm-2.91,3.08v2.11H60.3v-2.11h-.47v.65H57.39v-.65Zm.48,1h2.44v.7H57.39Zm.08-3.85a1.22,1.22,0,1,0,1.38,1.21A1.24,1.24,0,0,0,57.47,121.85Zm0,.4a.81.81,0,1,1-.89.81A.82.82,0,0,1,57.47,122.25Zm4.54-.14h-.48v3.39H62a12.37,12.37,0,0,0,2.58-.25l0-.41a12.22,12.22,0,0,1-2.49.25Zm3-.51v5.25h.48V121.6Zm2.09.9h2v-.4H66.65v3.46h.42a12.56,12.56,0,0,0,2.48-.19l0-.4a13.26,13.26,0,0,1-2.37.17Zm4.21,1.17h-.87V121.6H70v5.27h.48v-2.8h.87Zm.41,2.48a.34.34,0,0,1,.08-.23.32.32,0,0,1,.25-.1.31.31,0,0,1,.24.1.3.3,0,0,1,.09.23.31.31,0,0,1-.09.22.31.31,0,0,1-.24.08.32.32,0,0,1-.25-.08A.35.35,0,0,1,71.75,126.15Z"/><path class="cls-2" d="M19.69,98.94v6.72h.61V98.94Zm-2.92.52c-1,0-1.7.91-1.7,2.34s.7,2.33,1.7,2.33,1.7-.91,1.7-2.33S17.76,99.46,16.77,99.46Zm0,.55c.65,0,1.11.7,1.11,1.79s-.46,1.79-1.11,1.79-1.12-.7-1.12-1.79S16.11,100,16.77,100Zm9.38.23H22.24v1.59H26.9v-.48h-4v-.66h3.91V99.12H22.23v.47h3.92ZM22.88,104h3.28v1.06H22.88Zm-.6,1.55h4.49v-2H22.28Zm-.82-3.15v.49h6.07v-.49ZM33,99v3.59h.61V99Zm-3.7,3.92v2.68H33.6v-2.68H33v.82H29.89v-.82Zm.6,1.3H33v.89H29.89Zm.12-4.9a1.55,1.55,0,1,0,0,3.08,1.55,1.55,0,1,0,0-3.08Zm0,.5a1,1,0,1,1-1.15,1A1.05,1.05,0,0,1,30,99.77Zm8.28,2.33a14.76,14.76,0,0,1-2.66.16v-1H37.9V99.35H35v.5h2.3v.92H35v2h.47a15.7,15.7,0,0,0,2.84-.16Zm-2.51,1.83h3.87v1.72h.62v-2.23H35.78Zm3.87-5v1H38.34v.5h1.31v.89H38.34v.5h1.31v1.24h.62V99Z"/><path class="cls-2" d="M108.22,165.13a3.4,3.4,0,0,0,2.43-1.53,3.38,3.38,0,0,0,2.43,1.53l.24-.48c-1.18-.17-2.33-.94-2.33-1.82v0h2.09v-.49h-4.89v.49h2.12v0c0,.88-1.16,1.65-2.33,1.82Zm5.45.56h-6v.5h2.7v2.39h.61v-2.39h2.74Zm6.09-3.8h-.61v4.8h.61Zm-2.61,3.19h-1.94V163h1.94Zm.59-2.62h-3.13v3.11h3.13Zm-1.68,5.4v-1.62h-.61v2.11H120v-.49Zm7.6-2.66h-1.81V164h1.81Zm.6-.93h1.55v2.57h.62v-5h-.62v1.89h-1.55v-1.44h-.6v1.18h-1.81v-1.18h-.61v3.36h3Zm-1.53,3.66v-1.58h-.61v2.08h4.46v-.5Zm10.56-5.07h-2.4V162h-.61v.88h-2.43v.5h5.44ZM129,165.08c0-.49.61-.79,1.58-.79s1.57.3,1.57.79-.6.8-1.57.8S129,165.58,129,165.08Zm1.89,2.21v-.94c1.17-.07,1.88-.52,1.88-1.27s-.85-1.27-2.19-1.27-2.2.47-2.2,1.27.72,1.2,1.9,1.27v.94h-2.73v.5h6.07v-.5Zm10.39-5.41h-.62v4.83h.62Zm-1.62,1.93h-2.55v-1.1h2.54v-.5H136.5v2.09h3.16Zm-2,2.79h.61v-1.18c.65,0,1.35-.08,2-.16l0-.45c-1.43.14-3,.16-4.34.16l.08.51,1.69,0Zm1.92-.44h-.62v.3c0,.82-1,1.46-2.22,1.62l.22.47a3.14,3.14,0,0,0,2.32-1.3,3.13,3.13,0,0,0,2.3,1.3l.23-.47c-1.21-.16-2.23-.8-2.23-1.62Zm5.18-3.09h1.48v-.5h-3.62v.5h1.53v.85a3.52,3.52,0,0,1-1.76,2.89l.36.48a3.82,3.82,0,0,0,1.71-2.22,3.6,3.6,0,0,0,1.68,2.06l.35-.5a3.21,3.21,0,0,1-1.73-2.71Zm4,1.51h-1.11v-2.69H147v6.69h.61V165.1h1.11Zm1.39.31h2.47V162.5h-3.11v.5H152v1.39H149.5V167h.56a19.52,19.52,0,0,0,3.37-.24l-.06-.5a20.41,20.41,0,0,1-3.25.24Zm3.88-3v6.71h.61v-6.71Z"/><path class="cls-2" d="M18.38,211.31c-1.08,0-1.68-.21-1.68-.62s.6-.61,1.68-.61,1.68.22,1.68.61S19.46,211.31,18.38,211.31Zm0-1.68c-1.46,0-2.3.37-2.3,1.06s.84,1.08,2.3,1.08,2.29-.37,2.29-1.08S19.83,209.63,18.38,209.63Zm.3-1V208h2v-.48H16.76v-.66h3.72v-.46H16.76v-.62h3.9v-.48H16.14V208h1.93v.65H15.34v.5h6.07v-.5Zm8.81-3.54h-.61V210h.61ZM26,208.42a2.5,2.5,0,0,1-1.67-2.29v-.68h-.62v.68a2.61,2.61,0,0,1-1.68,2.41l.33.5a3,3,0,0,0,1.67-1.8,2.87,2.87,0,0,0,1.65,1.66Zm-2.23,2.71v-1.59h-.62v2.09h4.51v-.5Zm7.09-5.47h-.61v1.2a3.57,3.57,0,0,1-1.72,3l.37.49a3.7,3.7,0,0,0,1.66-2.22,3.75,3.75,0,0,0,1.62,2.09l.38-.49a3.39,3.39,0,0,1-1.7-2.87Zm4,2.14H33.79v-2.71h-.61v6.69h.61V208.3H34.9Z"/><path class="cls-2" d="M18.91,230.93v.5h1.34V234h.62v-4.9h-.62v1.84Zm.39,1.58a2.31,2.31,0,0,1-1.63-2.06v-.33h1.48v-.5H15.57v.5h1.49v.34a2.42,2.42,0,0,1-1.69,2.19l.33.48a2.84,2.84,0,0,0,1.68-1.66A2.78,2.78,0,0,0,19,233Zm-2.1,2.62v-1.57h-.62v2.07h4.48v-.5ZM26,229.89H24.35v-.8h-.61v.8H22v.49h4ZM23,232c0-.46.41-.77,1-.77s1,.31,1,.77-.4.76-1,.76S23,232.48,23,232Zm1.31,1.23A1.29,1.29,0,0,0,25.63,232c0-.75-.65-1.24-1.59-1.24s-1.58.49-1.58,1.24a1.29,1.29,0,0,0,1.28,1.23V234c-.65,0-1.28,0-1.82,0l.08.52a25.23,25.23,0,0,0,4.19-.27l0-.46a17.7,17.7,0,0,1-1.8.17Zm3.85-1.32h-1v-2.84h-.62v6.7h.62v-3.34h1Zm3.19.48H29.58v-1.21h1.81Zm.6-.93h1.55V234h.62v-5h-.62V231H32v-1.44h-.6v1.18H29.58v-1.18H29v3.36h3Zm-1.53,3.66v-1.58h-.61v2.08h4.47v-.5ZM41,230.06h-2.4v-.88H38v.88H35.59v.5H41Zm-4.28,2.22c0-.49.6-.79,1.58-.79s1.56.3,1.56.79-.6.8-1.56.8S36.74,232.78,36.74,232.28Zm1.88,2.21v-.94c1.17-.07,1.88-.52,1.88-1.27S39.65,231,38.32,231s-2.2.47-2.2,1.27.71,1.2,1.89,1.27v.94H35.29v.5h6.07v-.5Z"/><path class="cls-4" d="M14.42,112.82H184"/><path class="cls-4" d="M14.42,174.69H96"/><path class="cls-5" d="M25.09,273.36h98.13"/><path class="cls-4" d="M15,222.16H187.22"/><path class="cls-4" d="M15,243H187.22"/><path class="cls-4" d="M107.22,174.69h80"/><path class="cls-6" d="M20,130.16a5.6,5.6,0,1,0-5.6-5.6A5.6,5.6,0,0,0,20,130.16Z"/><path class="cls-1" d="M21.84,123.33a.33.33,0,0,1,.48,0,.35.35,0,0,1,0,.5l-2.39,2.49a.33.33,0,0,1-.48,0,.35.35,0,0,1,0-.5Z"/><path class="cls-1" d="M19.9,125.81a.36.36,0,0,1,0,.49.33.33,0,0,1-.48,0l-1.16-1.2a.35.35,0,0,1,0-.5.33.33,0,0,1,.48,0Z"/><path class="cls-7" d="M181.36,207.53,184,210l2.69-2.51"/><path class="cls-2" d="M80,329.09H0v26.67H80Z"/><path class="cls-1" d="M38.19,338.07v7.67h.7v-7.67Zm-3.34.59c-1.13,0-1.94,1-1.94,2.67s.81,2.67,1.94,2.67,1.95-1,1.95-2.67S36,338.66,34.85,338.66Zm0,.63c.75,0,1.27.8,1.27,2s-.52,2-1.27,2-1.28-.8-1.28-2S34.1,339.29,34.85,339.29Zm9.69.89v.58h1.53v2.92h.71v-5.6h-.71v2.1ZM45,342a2.61,2.61,0,0,1-1.86-2.34v-.38h1.68v-.57H40.72v.57h1.71v.39a2.78,2.78,0,0,1-1.93,2.5l.37.55a3.29,3.29,0,0,0,1.93-1.9,3.17,3.17,0,0,0,1.84,1.73Zm-2.4,3v-1.79h-.71v2.36H47V345Z"/><path class="cls-8" d="M200,329.09H80v26.67H200Z"/><path class="cls-1" d="M133.38,339.38h2.86v-.58h-3.56v5h.61a17.57,17.57,0,0,0,3.62-.28l-.08-.58a18.28,18.28,0,0,1-3.45.26Zm6.13,1.71h-1.26v-3h-.7v7.67h.7v-4.07h1.26Zm4.15-2.85c-1.65,0-2.68.54-2.68,1.45s1,1.44,2.68,1.44,2.69-.54,2.69-1.44S145.32,338.24,143.66,338.24Zm0,.55c1.22,0,2,.34,2,.9s-.76.89-2,.89-2-.33-2-.89S142.45,338.79,143.66,338.79Zm-2.6,4.31v2.52h5.22V343.1Zm4.54.56v1.4h-3.86v-1.4Zm-5.39-1.87v.56h6.92v-.56Z"/><rect class="cls-9" x="0.02" y="0.02" width="200" height="355.73"/><rect class="cls-1" x="25.62" y="107.76" width="149.33" height="140.27" rx="2.67"/><path class="cls-10" d="M25.62,223.49H175v21.87a2.67,2.67,0,0,1-2.67,2.66h-144a2.67,2.67,0,0,1-2.67-2.66Z"/><path class="cls-11" d="M67.77,137.24a12.06,12.06,0,0,1-.22,2.59l.53.06a13.35,13.35,0,0,0,.21-2.65v-.57h-4v.42h3.5Zm-1.51,3.36v-2.06h-.52v2.06h-2V141h5.19v-.42Zm3.6-4.08v.42h1.7a2.74,2.74,0,0,1-1.92,2.21l.25.38a3.17,3.17,0,0,0,2.21-3Zm.73,3.65h3.33v1.66h.53v-2.09H70.59Zm3.35-4.07v1.44h-.75V136.2h-.5v3.24h.5V138h.75v1.51h.51V136.1Zm5.11,2.11a13.23,13.23,0,0,1-2.68.25v-2h-.53v2.49h.47a13.13,13.13,0,0,0,2.81-.27ZM77,140h2.68v1.29H77Zm-.52,1.72H80.2v-2.13H76.48Zm3.19-5.67v3.26h.53v-3.26Zm3.57.43a1.36,1.36,0,1,0,1.54,1.35A1.39,1.39,0,0,0,83.24,136.51Zm0,.45a.91.91,0,1,1-1,.9A.93.93,0,0,1,83.24,137Zm2.29-.87v5.75h.53v-5.75Zm-4,4.49a20.79,20.79,0,0,0,3.72-.25l0-.39a26.25,26.25,0,0,1-3.74.2Zm11-3.79H91v-.7h-.53v.7H89v.43H92.5Zm-2.63,1.81c0-.4.36-.65.89-.65s.87.25.87.65-.36.66-.87.66S89.87,139,89.87,138.6ZM91,139.65c.68-.08,1.11-.48,1.11-1.05s-.56-1.06-1.37-1.06-1.39.42-1.39,1.06.44,1,1.12,1.06v.62l-1.6,0,.07.44a23.61,23.61,0,0,0,3.72-.23l0-.39c-.52.07-1.08.11-1.62.14Zm2-3.56v5.74h.52v-5.74Zm4.74,3.39v.39h1.16v.59h.53v-4.37h-.53v3.39Zm-1.17-2.77c.54,0,.91.24.91.61s-.37.61-.91.61-.92-.24-.92-.61S96,136.71,96.58,136.71Zm0,1.61c.84,0,1.41-.39,1.41-1s-.57-1-1.41-1-1.42.4-1.42,1S95.74,138.32,96.58,138.32Zm-.21,1.94h.53v-1.14c.52,0,1-.09,1.55-.16l0-.38a32.08,32.08,0,0,1-3.7.17l.07.43,1.59,0Zm-.32,1V140h-.52v1.67h4.06v-.43Zm7.64-3.69V138h1.14v1.5h.53V136.1h-.53v1.48Zm.32,1.31a2,2,0,0,1-1.39-1.76v-.2h1.26v-.42h-3.07v.42h1.28v.2a2.12,2.12,0,0,1-1.44,1.92l.27.41a2.43,2.43,0,0,0,1.45-1.46,2.36,2.36,0,0,0,1.38,1.3Zm-.55,2.53c-.86,0-1.38-.24-1.38-.66s.52-.66,1.38-.66,1.39.25,1.39.66S104.33,141.42,103.46,141.42Zm0-1.73c-1.17,0-1.91.39-1.91,1.07s.74,1.07,1.91,1.07,1.92-.39,1.92-1.07S104.64,139.69,103.46,139.69Zm4.19-1.74h2.93V139h-2.93Zm1.73,2.72v-1.24h1.71V136.5h-.51v1h-2.93v-1h-.52v2.93h1.72v1.24h-2.33v.42h5.2v-.42Zm7-3.58h-3.35v1.23h4V138h-3.45v-.5h3.35v-1.19h-3.88v.37h3.36Zm-2.86,3.75H117v-1.22H113V140h3.42v.48H113v1.27h4.1v-.37h-3.58Zm-1.16-2.08v.4h5.21v-.4Zm10.89-2.24h-1.38V136h-.53v.49H120v.38h3.3Zm-2.49,1.32c0-.26.33-.41.85-.41s.83.15.83.41-.32.41-.83.41S120.8,138.09,120.8,137.84Zm2.66.95c-.49.06-1,.11-1.55.13v-.33c.66-.06,1.07-.33,1.07-.75s-.53-.76-1.33-.76-1.35.28-1.35.76.42.69,1.08.75v.35c-.55,0-1.08,0-1.53,0l.06.39a21,21,0,0,0,3.59-.23Zm-2.32,2.11h3.19v-1.17h-3.72v.37h3.2v.45h-3.18v1.22h3.91v-.38h-3.4Zm3.19-3.34v-1.47h-.53v3.39h.53V138h.84v-.44Zm4,3.86c-.9,0-1.43-.22-1.43-.61s.53-.62,1.43-.62,1.43.23,1.43.62S129.25,141.42,128.36,141.42Zm0-1.64c-1.23,0-2,.37-2,1s.74,1,2,1,2-.35,2-1S129.59,139.78,128.36,139.78Zm-.79-1.52a4.7,4.7,0,0,0,.79.06,4.92,4.92,0,0,0,.8-.06v.67h-1.59Zm-.69-1c0-.42.56-.66,1.48-.66s1.48.24,1.48.66-.57.66-1.48.66S126.88,137.67,126.88,137.26Zm2.8,1.67v-.81a1,1,0,0,0,.69-.86c0-.67-.76-1.07-2-1.07s-2,.4-2,1.07a.94.94,0,0,0,.71.86v.81h-1.29v.42H131v-.42Zm5.38-2.14h-1.43v-.7h-.53v.7h-1.43v.43h3.39Zm-2.57,1.81c0-.4.35-.65.87-.65s.88.25.88.65-.36.66-.88.66S132.49,139,132.49,138.6Zm2.25,0c0-.64-.56-1.06-1.38-1.06S132,138,132,138.6s.56,1.07,1.37,1.07S134.74,139.24,134.74,138.6Zm-1.68,1.46h-.52v1.64h3.82v-.43h-3.3Zm3.05-2.08v-1.89h-.53v4.31h.53v-2H137V138ZM57.25,145.9v.43H59a3.47,3.47,0,0,1-1.93,3l.3.38a4,4,0,0,0,2.15-3.77Zm4.15-.74v2.31h-.78v-2.16h-.49v5.3h.49V147.9h.78v3h.51v-5.74Zm6.23,0h-.52v4.19h.52ZM63.57,147a1,1,0,1,1,1,1A.94.94,0,0,1,63.57,147Zm2.48,0a1.5,1.5,0,1,0-1.5,1.42A1.41,1.41,0,0,0,66.05,147Zm-1.58,3.37v-1.41h-.53v1.84h3.87v-.43Zm7.41-3.69v.43H73v1.5h.53v-3.42H73v1.49Zm.32,1.3a2,2,0,0,1-1.4-1.75V146h1.26v-.42H69V146h1.28v.2a2.11,2.11,0,0,1-1.45,1.91l.27.42a2.46,2.46,0,0,0,1.45-1.46,2.35,2.35,0,0,0,1.38,1.29Zm-.55,2.54c-.87,0-1.39-.25-1.39-.66s.52-.67,1.39-.67,1.38.25,1.38.67S72.51,150.49,71.65,150.49Zm0-1.73c-1.18,0-1.92.39-1.92,1.07s.74,1.07,1.92,1.07,1.91-.39,1.91-1.07S72.82,148.76,71.65,148.76ZM75.83,147h2.93v1H75.83Zm1.73,2.71V148.5h1.71v-2.93h-.51v1H75.83v-1h-.52v2.93H77v1.23H74.7v.43h5.2v-.43Zm6.55-3.55h1.27v-.44h-3.1v.44h1.31v.73a3,3,0,0,1-1.51,2.47l.3.42a3.27,3.27,0,0,0,1.47-1.9,3.11,3.11,0,0,0,1.44,1.76l.3-.43a2.76,2.76,0,0,1-1.48-2.32Zm3.43,1.29h-1v-2.31h-.53v5.74h.53v-3h1Zm3.12,3c-.91,0-1.44-.23-1.44-.63s.53-.63,1.44-.63,1.43.23,1.43.63S91.56,150.49,90.66,150.49Zm0-1.67c-1.23,0-2,.37-2,1s.74,1,2,1,2-.37,2-1S91.88,148.82,90.66,148.82Zm.26-.83v-.66h1.73v-.43H89.24v-1.06h3.37v-.42h-3.9v1.91H90.4V148H88.06v.42h5.2V148Zm3.84-1.44c0-.43.38-.73.93-.73s.92.3.92.73-.38.73-.92.73S94.76,147,94.76,146.55Zm2.76,1.53a15.56,15.56,0,0,1-1.56.15v-.57a1.15,1.15,0,0,0,1.14-1.11c0-.67-.58-1.13-1.41-1.13s-1.42.46-1.42,1.13a1.16,1.16,0,0,0,1.16,1.12v.58c-.53,0-1.05,0-1.49,0l.07.43a20.5,20.5,0,0,0,3.54-.24Zm-2.23,1.1h-.52v1.58H98.6v-.43H95.29Zm3.11-2.08v-1.94h-.53v4.39h.53v-2h.83v-.44Zm5.63,1.45h.54v-3.39H104v1.22h-1.24v.43H104Zm-.83-.67a2,2,0,0,1-1.39-1.83v-.57h-.53v.59a2.09,2.09,0,0,1-1.45,2l.27.43a2.43,2.43,0,0,0,1.46-1.46,2.37,2.37,0,0,0,1.36,1.29Zm-.53,2.59c-.86,0-1.39-.25-1.39-.66s.53-.67,1.39-.67,1.39.25,1.39.67S103.53,150.47,102.67,150.47Zm0-1.74c-1.18,0-1.91.39-1.91,1.08s.73,1.08,1.91,1.08,1.91-.4,1.91-1.08S103.85,148.73,102.67,148.73Zm5.65-3.22c-1.2,0-2.09.64-2.09,1.59s.89,1.59,2.09,1.59,2.08-.63,2.08-1.59S109.51,145.51,108.32,145.51Zm0,.43c.9,0,1.58.47,1.58,1.16s-.68,1.16-1.58,1.16-1.59-.46-1.59-1.16S107.41,145.94,108.32,145.94Zm-2.6,3.76v.44h5.21v-.44Zm8.75.06v-1.08h1.84v-.43h-3.53v-.92h3.39v-1.75h-3.93V146h3.42v.89h-3.4v1.78h1.68v1.08H111.6v.43h5.22v-.43Zm8.8-4.6v3.08h.53v-3.08Zm-3.17,3.36v2.3h3.7v-2.3h-.52v.71h-2.67v-.71Zm.51,1.12h2.67v.76h-2.67Zm.1-4.21a1.33,1.33,0,1,0,1.5,1.32A1.36,1.36,0,0,0,120.71,145.43Zm0,.44a.89.89,0,1,1-1,.88A.9.9,0,0,1,120.71,145.87Zm7.3,2a12.83,12.83,0,0,1-2.28.14v-.87h1.94V145.5H125.2v.43h2v.79h-1.94v1.71h.41a13.46,13.46,0,0,0,2.43-.14Zm-2.15,1.56h3.31v1.48h.53V149h-3.84Zm3.31-4.26V146h-1.12v.43h1.12v.76h-1.12v.43h1.12v1.06h.53v-3.53Zm5.43,5.25h-1v-.77h1Zm0-1.16h-1v-.73h-.49v2.3h2v-2.3h-.49Zm-.58-1.63a.89.89,0,1,1,1-.89A.9.9,0,0,1,134,147.62Zm2.63-.68v1.26h.53v-3h-.53v1.35h-1.17a1.38,1.38,0,0,0-1.46-1.1,1.33,1.33,0,1,0,0,2.65,1.37,1.37,0,0,0,1.46-1.12Zm.07,1.54h-.52V149a1.64,1.64,0,0,1-1,1.5l.27.4a1.91,1.91,0,0,0,1-1.08,1.84,1.84,0,0,0,1,1.08l.26-.4a1.6,1.6,0,0,1-1-1.5Zm5.79-3.32v5.75H143v-5.75Zm-2.5.44c-.86,0-1.46.78-1.46,2s.6,2,1.46,2,1.45-.78,1.45-2S140.86,145.6,140,145.6Zm0,.47c.55,0,1,.6,1,1.53s-.4,1.54-1,1.54-1-.6-1-1.54S139.44,146.07,140,146.07Zm-85.73,8.6v.43H56.4c-.11,1-1,1.82-2.35,2.25l.22.41c1.65-.52,2.69-1.6,2.69-3.09ZM55.44,158h-.52v1.85h3.83v-.43H55.44Zm3.06-2v-1.74H58v4.19h.53v-2h.84V156Zm5.63,2.52h.53v-4.26h-.53v1.09h-1v.42h1v.67h-1v.43h1Zm-2.95-3.38H62v2l-.86,0Zm2.12,1.94-.75.07v-2h.57v-.42h-3v.42h.57v2.08H60l.06.44a23.11,23.11,0,0,0,3.32-.19Zm-1.8,2.36v-1.26H61v1.69h3.83v-.43Zm6-1.16a.89.89,0,1,1,.9-.88A.86.86,0,0,1,67.5,158.25Zm0-2.21a1.31,1.31,0,0,0-1.39,1.33,1.4,1.4,0,0,0,2.79,0A1.31,1.31,0,0,0,67.5,156Zm.26-1.75h-.53v.85H65.78v.43h3.39v-.43H67.76Zm3.42,2.29h-.94v-2.35h-.53V160h.53V157h.94Zm3.71,0h-1a4.38,4.38,0,0,0,.28-1.62H72v.43h1.7a3.72,3.72,0,0,1-1.94,3l.31.38A4.45,4.45,0,0,0,73.71,157h1.18v2.69h.49v-5.3h-.49Zm1.19-2.35V160h.5v-5.74Zm3.32.75v.42h1.72a3.5,3.5,0,0,1-1.94,3l.31.37A4,4,0,0,0,81.64,155Zm4.14-.75v2.31h-.78v-2.15h-.49v5.3h.49V157h.78v3h.51v-5.74Zm6.24,0h-.53v4.19h.53ZM85.71,156a1,1,0,1,1,1,1A.94.94,0,0,1,85.71,156Zm2.49,0a1.5,1.5,0,1,0-1.51,1.42A1.41,1.41,0,0,0,88.2,156Zm-1.59,3.38V158h-.53v1.85H90v-.43Zm7.41-3.7v.43h1.13v1.51h.53v-3.42h-.53v1.48Zm.32,1.31a2,2,0,0,1-1.4-1.75v-.2h1.27v-.42H91.14v.42h1.28v.2A2.11,2.11,0,0,1,91,157.18l.28.42a2.5,2.5,0,0,0,1.44-1.46,2.36,2.36,0,0,0,1.39,1.29Zm-.55,2.53c-.86,0-1.39-.24-1.39-.66s.53-.66,1.39-.66,1.39.25,1.39.66S94.65,159.55,93.79,159.55Zm0-1.72c-1.18,0-1.91.39-1.91,1.06s.73,1.07,1.91,1.07,1.91-.39,1.91-1.07S95,157.83,93.79,157.83ZM98,156.09h2.94v1H98Zm1.73,2.71v-1.24h1.72v-2.93h-.51v1H98v-1h-.51v2.93h1.71v1.24H96.84v.43H102v-.43Zm7-3.57H103.4v1.23h4v-.38h-3.46v-.49h3.36v-1.2h-3.89v.37h3.37ZM103.88,159h3.41v-1.22h-3.94v.37h3.42v.48h-3.41v1.28h4.11v-.38h-3.59Zm-1.15-2.09v.4h5.2v-.4Zm11.47-1.09h-2.79v-.55h2.79Zm.52-1.49h-.52v.55h-2.79v-.55h-.52v1.9h3.83Zm.67,2.79v-.43H110.2v.43h2.33v.56h-1.71v.4h3.39v.5h-3.37v1.34h4.06v-.4h-3.54v-.56h3.37v-1.28h-1.67v-.56Zm1.43-.34h2v-2h-2.57v.43h2v1.16h-2v2.25h.44a13.43,13.43,0,0,0,2.63-.19l-.05-.43a13.86,13.86,0,0,1-2.5.18Zm3.47-2.54v2.21H119.2v.43h1.09V160h.52v-5.75Zm2.5,1.25c0-.4.38-.66.93-.66s.92.26.92.66-.38.67-.92.67S122.79,155.87,122.79,155.47Zm2.76,1.4A12.92,12.92,0,0,1,124,157v-.5c.69-.08,1.14-.48,1.14-1s-.57-1.06-1.41-1.06-1.41.43-1.41,1.06.46,1,1.15,1V157c-.53,0-1,0-1.49,0l.07.42a20.37,20.37,0,0,0,3.54-.24ZM126,158h-.51v.14a1.57,1.57,0,0,1-.81,1.32,1.54,1.54,0,0,1-.8-1.32V158h-.51v.14a1.53,1.53,0,0,1-1.14,1.39l.25.38a1.86,1.86,0,0,0,1.14-1,1.84,1.84,0,0,0,1.07,1.08,1.83,1.83,0,0,0,1-1.08,1.83,1.83,0,0,0,1.15,1l.26-.38a1.53,1.53,0,0,1-1.15-1.39Zm.48-2.21v-1.54h-.53v3.49h.53v-1.51h.84v-.44Zm6.33.24c-1-.12-2-.76-2-1.47v-.25h-.53v.25c0,.73-1,1.35-2,1.47l.19.43a2.93,2.93,0,0,0,2.11-1.23,3,3,0,0,0,2.11,1.23Zm-.9,3.45H129v-.73h2.82Zm0-1.13H129v-.67h-.52v2.23h3.86v-2.23h-.52Zm-4-1.49v.42h5.2v-.42Zm6.78-2.06h-.53v3.7h.48a14,14,0,0,0,2.81-.27l-.06-.45a13.65,13.65,0,0,1-2.7.27Zm3.29-.56V160h.53v-5.74Zm2.48,1h2.14v-.44h-2.67v3.77h.46a14.05,14.05,0,0,0,2.71-.2l-.05-.44a13.81,13.81,0,0,1-2.59.19Zm4.59,1.28h-.94v-2.27h-.53V160h.53v-3.06H145Zm.64,2.7a.35.35,0,0,1,.09-.25.33.33,0,0,1,.27-.1.31.31,0,0,1,.26.1.32.32,0,0,1,.1.25.33.33,0,0,1-.1.24.34.34,0,0,1-.26.09.37.37,0,0,1-.27-.09A.36.36,0,0,1,145.64,159.19Zm-87,4.84v.43h1.72a3.47,3.47,0,0,1-1.94,3l.31.38A4,4,0,0,0,60.85,164Zm4.15-.74v2.31H62v-2.16h-.5v5.3H62V166h.78v3h.5v-5.74Zm6.23,0h-.53v4.19H69Zm-4.06,1.8a.93.93,0,0,1,1-.95.94.94,0,0,1,1,.95,1,1,0,0,1-1,1A.94.94,0,0,1,64.93,165.1Zm2.48,0a1.5,1.5,0,1,0-1.51,1.42A1.42,1.42,0,0,0,67.41,165.1Zm-1.59,3.37v-1.41H65.3v1.84h3.86v-.43Zm7.41-3.69v.43h1.14v1.5h.53V163.3h-.53v1.48Zm.32,1.31a2,2,0,0,1-1.39-1.76v-.2h1.26v-.42H70.35v.42h1.28v.2a2.13,2.13,0,0,1-1.44,1.92l.27.41a2.49,2.49,0,0,0,1.45-1.46,2.36,2.36,0,0,0,1.38,1.3ZM73,168.62c-.86,0-1.39-.24-1.39-.66s.53-.66,1.39-.66,1.39.25,1.39.66S73.87,168.62,73,168.62Zm0-1.73c-1.18,0-1.91.39-1.91,1.07S71.82,169,73,169s1.92-.39,1.92-1.07S74.18,166.89,73,166.89Zm4.19-1.74h2.93v1.06H77.19Zm1.73,2.72v-1.24h1.71V163.7h-.51v1H77.19v-1h-.52v2.93h1.71v1.24H76.05v.42h5.21v-.42Zm8-4.06H85.56v-.56H85v.56H83.64v.4h3.3Zm-2.49,1.46c0-.3.33-.48.85-.48s.83.18.83.48-.33.5-.83.5S84.45,165.57,84.45,165.27Zm2.66,1.1c-.5.08-1,.12-1.55.15v-.4c.66-.07,1.07-.38,1.07-.85s-.53-.85-1.33-.85-1.35.33-1.35.85.42.78,1.08.85v.41c-.55,0-1.07,0-1.53,0l.06.43a23.23,23.23,0,0,0,3.59-.23Zm-2.91,1.48h3.25V169H88v-1.6H84.2ZM88.82,165H88V163.3h-.53v3.84H88v-1.67h.84Zm5.31-1.73H93.6v4.19h.53Zm-4.07,1.8a1,1,0,1,1,1,1A1,1,0,0,1,90.06,165.1Zm2.49,0A1.5,1.5,0,1,0,91,166.52,1.42,1.42,0,0,0,92.55,165.1ZM91,168.47v-1.41h-.53v1.84H94.3v-.43ZM101.77,164h-2v-.69h-.53V164H97.16v.42h4.61Zm-1,1.71c0,.35-.47.55-1.31.55s-1.32-.2-1.32-.55.48-.56,1.32-.56S100.8,165.31,100.8,165.66Zm-3.18,0c0,.61.7,1,1.87,1s1.86-.34,1.86-1-.7-1-1.86-1S97.62,165,97.62,165.66Zm4.47,1.35h-5.2v.43h2.33V169h.53v-1.6h2.34Zm6.48-2.24v.81h-1.33v-.81Zm-1.85,1.37h-1.55v-1h1.55Zm.52-.13h1.33v1.53h.53V163.3h-.53v1h-1.33v-.68h-.52v1h-1.55v-1h-.52v2.89h2.59Zm-1.31,2.46v-1.35h-.53v1.78h3.83v-.43Zm8.52-3.7v.77H113V166h1.5v.76H115V163.3h-.53v1h-1.3a3.2,3.2,0,0,0,.07-.63h-2.59v.43h2c-.1,1-1,1.75-2.32,2.16l.21.42a3.54,3.54,0,0,0,2.48-2Zm-1.34,3.83c-.85,0-1.38-.27-1.38-.7s.53-.69,1.38-.69,1.38.26,1.38.69S114,168.6,113.11,168.6Zm0-1.81c-1.16,0-1.9.42-1.9,1.11s.74,1.1,1.9,1.1,1.9-.41,1.9-1.1S114.27,166.79,113.11,166.79Zm7.73-3.5h-.53v4.29h.53Zm-1,3c-.49.06-1,.09-1.54.12v-.8h1.14v-.42H117.2v-1.08h2.21v-.43h-2.73v1.93h1.11v.82c-.57,0-1.12,0-1.62,0l.07.43a27.56,27.56,0,0,0,3.65-.21Zm-2.2,2.2V167.3h-.52v1.6H121v-.43Zm6.77-4.48h-.52v3.55h.36a10.5,10.5,0,0,0,2.06-.18l0-.45a9.85,9.85,0,0,1-1.85.17Zm3.56-.7v2.34h-.81v-2.21h-.49v5.32h.49v-2.68H128v3h.51v-5.73Zm4.12,5.33c-.91,0-1.44-.22-1.44-.61s.53-.62,1.44-.62,1.43.23,1.43.62S133,168.62,132.1,168.62Zm0-1.64c-1.23,0-2,.37-2,1s.74,1,2,1,2-.35,2-1S133.33,167,132.1,167Zm-.8-1.52a5.36,5.36,0,0,0,1.6,0v.67h-1.6Zm-.68-1c0-.42.56-.66,1.48-.66s1.47.24,1.47.66-.56.66-1.47.66S130.62,164.87,130.62,164.46Zm2.79,1.67v-.81a1,1,0,0,0,.7-.86c0-.67-.77-1.07-2-1.07s-2,.4-2,1.07a.94.94,0,0,0,.7.86v.81H129.5v.42h5.19v-.42Zm6.15-2.84V169h.53v-5.75Zm-2.5.44c-.85,0-1.46.78-1.46,2s.61,2,1.46,2,1.46-.78,1.46-2S137.91,163.73,137.06,163.73Zm0,.47c.56,0,1,.61,1,1.53s-.4,1.54-1,1.54-1-.6-1-1.54S136.5,164.2,137.06,164.2Zm-57.65,8.16h-.53v3.28h.53Zm-3.09.77a.91.91,0,1,1,0,1.81.91.91,0,1,1,0-1.81Zm0,2.24A1.34,1.34,0,1,0,74.83,174,1.37,1.37,0,0,0,76.32,175.37Zm2.45.52h-.51v.31a1.71,1.71,0,0,1-.83,1.36,1.59,1.59,0,0,1-.79-1.36v-.31h-.51v.31A1.62,1.62,0,0,1,75,177.62l.26.4A2,2,0,0,0,76.37,177a1.86,1.86,0,0,0,1.07,1.11,2,2,0,0,0,1.07-1.13A1.87,1.87,0,0,0,79.66,178l.26-.4a1.55,1.55,0,0,1-1.15-1.42Zm4.41-3.18c-1.19,0-2.09.64-2.09,1.59s.9,1.59,2.09,1.59,2.08-.63,2.08-1.59S84.37,172.71,83.18,172.71Zm0,.43c.91,0,1.58.47,1.58,1.16s-.67,1.16-1.58,1.16-1.59-.46-1.59-1.16S82.28,173.14,83.18,173.14Zm-2.6,3.76v.44H85.8v-.44Zm10.6-4.54h-.53v3h.53ZM90,174.76A2,2,0,0,1,88.5,173v-.43H88V173a2.07,2.07,0,0,1-1.46,1.9l.27.41a2.41,2.41,0,0,0,1.46-1.42,2.43,2.43,0,0,0,1.45,1.32Zm-2,2.86V177h3.18v-1.38H87.46V176h3.2v.58H87.48V178h3.9v-.41Zm10.15-3.78v.77H96.64V175h1.51v.75h.53v-3.43h-.53v1h-1.3a3.18,3.18,0,0,0,.06-.62H94.32v.42h2c-.09,1-1,1.76-2.32,2.17l.22.41a3.56,3.56,0,0,0,2.47-1.95Zm-1.35,3.82c-.84,0-1.38-.26-1.38-.7s.54-.69,1.38-.69,1.38.27,1.38.69S97.65,177.66,96.8,177.66Zm0-1.8c-1.16,0-1.9.41-1.9,1.1s.74,1.11,1.9,1.11,1.9-.41,1.9-1.11S98,175.86,96.8,175.86Zm5.62-2.85c.88,0,1.47.33,1.47.83s-.59.84-1.47.84-1.46-.33-1.46-.84S101.55,173,102.42,173Zm0,2.09c1.2,0,2-.48,2-1.26s-.81-1.25-2-1.25-2,.48-2,1.25S101.23,175.1,102.42,175.1Zm2.61.55H99.84v.43h2.32v2h.52v-2H105Zm7.22-1.11c-1-.15-2.07-.86-2.07-1.66v-.32h-.55v.32c0,.82-1,1.51-2,1.66l.21.43a3,3,0,0,0,2.12-1.35A3,3,0,0,0,112,175Zm.25,1.05h-5.18V176h2.31v2.08h.53V176h2.35Zm3.76-1.74v.43h1.14v1.5h.53v-3.42h-.53v1.49Zm.32,1.3a2,2,0,0,1-1.39-1.75v-.2h1.26v-.42h-3.07v.42h1.28v.2a2.12,2.12,0,0,1-1.44,1.91l.27.42a2.49,2.49,0,0,0,1.45-1.46,2.35,2.35,0,0,0,1.38,1.29Zm-.55,2.54c-.86,0-1.39-.25-1.39-.66s.53-.67,1.39-.67,1.39.25,1.39.67S116.9,177.69,116,177.69Zm0-1.73c-1.17,0-1.91.39-1.91,1.07s.74,1.07,1.91,1.07S118,177.71,118,177,117.21,176,116,176Zm9.53-2.94h-2v-.7H123v.7h-2.06v.42h4.62Zm-1,1.7c0,.36-.47.56-1.31.56s-1.32-.2-1.32-.56.48-.55,1.32-.55S124.58,174.37,124.58,174.72Zm-3.18,0c0,.62.7,1,1.87,1s1.86-.34,1.86-1-.7-1-1.86-1S121.4,174.11,121.4,174.72Zm4.48,1.36h-5.21v.43H123v1.59h.53v-1.59h2.35Zm-51.62,5.35h-.52v4.2h.52Zm-1.2,3a2,2,0,0,1-1.44-1.75v-.31h1.3v-.43H69.77v.43h1.31v.31a2,2,0,0,1-1.45,1.87l.28.41a2.42,2.42,0,0,0,1.45-1.42,2.45,2.45,0,0,0,1.45,1.31Zm-2,2.22v-1.38h-.53V187h3.87v-.43Zm8-3.2h.73v1.65h.51v-3.64h-.51V183h-.73v-1.45h-.5v3.32h.5Zm-.73-1.3H77.13v-.64h-.52v.64h-1.2v.41h2.92Zm-2.2,1.69c0-.35.3-.59.76-.59s.75.24.75.59-.31.6-.75.6S76.12,184.16,76.12,183.8Zm2,0c0-.59-.5-1-1.22-1s-1.23.39-1.23,1,.5,1,1.23,1S78.1,184.41,78.1,183.8Zm.3,2.95c-.88,0-1.4-.21-1.4-.59s.52-.6,1.4-.6,1.39.21,1.39.6S79.27,186.75,78.4,186.75Zm0-1.6c-1.2,0-1.92.36-1.92,1s.72,1,1.92,1,1.92-.36,1.92-1S79.6,185.15,78.4,185.15Zm4.35.25a.79.79,0,0,1-.76-.88.77.77,0,1,1,1.52,0A.8.8,0,0,1,82.75,185.4Zm0-2.19A1.31,1.31,0,1,0,84,184.52,1.23,1.23,0,0,0,82.75,183.21Zm.26-1.62h-.52v.81H81.32v.43h2.85v-.43H83Zm2.68-.17v2.42H85v-2.29h-.49v5.33H85v-2.61h.74v2.89h.5v-5.74Zm2,2.79a2.91,2.91,0,0,0,2.09-1.31,2.85,2.85,0,0,0,2.08,1.31l.21-.41c-1-.15-2-.81-2-1.56v0h1.8v-.42H87.71v.42h1.81v0c0,.75-1,1.41-2,1.56Zm4.68.48H87.22v.43h2.32v2h.52v-2h2.35Zm2.73-2.77h-.52v1a3,3,0,0,1-1.54,2.59l.32.43a3.16,3.16,0,0,0,1.48-1.92,3.13,3.13,0,0,0,1.48,1.81l.32-.42A2.84,2.84,0,0,1,95.14,183Zm2.14-.5v5.76h.52v-5.76Zm2,.62v.43h2.16a3.81,3.81,0,0,1-2.42,3.2l.28.42A4.29,4.29,0,0,0,102,182Zm3.85-.62v5.74h.52v-5.74Zm5.67,3.93h-1.63v-1.51h1.63Zm0-1.92h-1.63v-1.52h-.52v3.87h2.67v-3.87h-.52Zm3,.25h-1v-2.25h-.52v5.73h.52v-3h1Zm3.9.16a14.3,14.3,0,0,1-2.61.19v-.78h2.06v-1.54h-2.59v.42h2.07v.71H112.6v1.62h.46a15.49,15.49,0,0,0,2.72-.19Zm.56,2.82h-2.57V186h2.57Zm0-1.11h-2.57v-.7h-.52v2.24h3.61v-2.24h-.52Zm1.37-2.74h-.85v-1.38h-.53v3.17h.53v-1.35h.85Zm1.46-.83h-.52v3.7h.47a14,14,0,0,0,2.82-.27l-.06-.45a13.67,13.67,0,0,1-2.71.27Zm3.3-.56v5.74H123v-5.74Zm2.48,1H127V182h-2.67v3.77h.46a14.12,14.12,0,0,0,2.71-.2l-.06-.44a13.63,13.63,0,0,1-2.58.19Zm4.59,1.28h-.94v-2.27H128v5.76h.53v-3.06h.94Zm.64,2.7a.39.39,0,0,1,.08-.25.36.36,0,0,1,.27-.1.33.33,0,0,1,.27.1.36.36,0,0,1,.1.25.33.33,0,0,1-.37.33.4.4,0,0,1-.27-.09A.41.41,0,0,1,130.13,186.39Zm-81.57,6.29c-1-.16-2.06-.87-2.06-1.67v-.32H46V191c0,.82-1,1.51-2.06,1.67l.21.42a3,3,0,0,0,2.12-1.34,3,3,0,0,0,2.13,1.34Zm.25,1H43.63v.44H46v2.08h.52v-2.08h2.35ZM52.58,192v.43h1.13v1.5h.53V190.5h-.53V192Zm.32,1.31a2,2,0,0,1-1.4-1.76v-.2h1.26v-.42H49.7v.42H51v.2a2.13,2.13,0,0,1-1.45,1.92l.27.41a2.43,2.43,0,0,0,1.45-1.46,2.36,2.36,0,0,0,1.38,1.3Zm-.55,2.53c-.87,0-1.39-.24-1.39-.66s.52-.66,1.39-.66,1.38.25,1.38.66S53.21,195.82,52.35,195.82Zm0-1.73c-1.18,0-1.92.39-1.92,1.07s.74,1.07,1.92,1.07,1.91-.39,1.91-1.07S53.52,194.09,52.35,194.09Zm7.75-3.6h-.53v4.29h.53Zm-1,3c-.49.06-1,.09-1.54.12v-.8h1.14v-.42H56.46v-1.08h2.21v-.43H55.94v1.93H57v.82c-.56,0-1.12,0-1.62,0l.08.43a27.66,27.66,0,0,0,3.65-.21Zm-2.2,2.2V194.5h-.53v1.6h3.91v-.43Zm6.77-4.48h-.53v3.55h.37a10.35,10.35,0,0,0,2-.18l0-.45a9.68,9.68,0,0,1-1.84.17Zm3.56-.7v2.34h-.82v-2.21h-.49v5.32h.49v-2.68h.82v3h.5v-5.73Zm4.11,5.33c-.9,0-1.43-.22-1.43-.61s.53-.62,1.43-.62,1.44.23,1.44.62S72.25,195.82,71.35,195.82Zm0-1.64c-1.23,0-2,.37-2,1s.73,1,2,1,2-.35,2-1S72.59,194.18,71.35,194.18Zm-.79-1.52a5.3,5.3,0,0,0,1.59,0v.67H70.56Zm-.69-1c0-.42.57-.66,1.48-.66s1.48.24,1.48.66-.56.66-1.48.66S69.87,192.07,69.87,191.66Zm2.8,1.67v-.81a1,1,0,0,0,.7-.86c0-.67-.77-1.07-2-1.07s-2,.4-2,1.07a.94.94,0,0,0,.7.86v.81H68.75v.42H74v-.42Zm4.57-2.22c.9,0,1.48.27,1.48.72s-.58.72-1.48.72-1.48-.26-1.48-.72S76.34,191.11,77.24,191.11Zm0,1.86c1.23,0,2-.42,2-1.14s-.79-1.14-2-1.14-2,.43-2,1.14S76,193,77.24,193Zm-1.4,1.47h-.53v1.66h4v-.43H75.84Zm-1.2-.93v.42h5.19v-.42Zm11.53-1.87a12.62,12.62,0,0,1-.21,2.59l.52.06a12.76,12.76,0,0,0,.22-2.65v-.57h-4v.42h3.5ZM84.67,195v-2.06h-.52V195h-2v.42h5.19V195Zm3.6-4.08v.42H90A2.77,2.77,0,0,1,88,193.55l.26.38a3.17,3.17,0,0,0,2.21-3Zm.73,3.65h3.33v1.66h.53v-2.09H89Zm3.35-4.07v1.44h-.76V190.6H91.1v3.24h.49v-1.48h.76v1.51h.51V190.5ZM97,192v.43H98.1v1.5h.53V190.5H98.1V192Zm.32,1.31a2,2,0,0,1-1.39-1.76v-.2h1.26v-.42H94.08v.42h1.28v.2a2.13,2.13,0,0,1-1.44,1.92l.27.41a2.46,2.46,0,0,0,1.45-1.46A2.36,2.36,0,0,0,97,193.7Zm-.55,2.53c-.86,0-1.39-.24-1.39-.66s.53-.66,1.39-.66,1.39.25,1.39.66S97.6,195.82,96.73,195.82Zm0-1.73c-1.17,0-1.91.39-1.91,1.07s.74,1.07,1.91,1.07,1.92-.39,1.92-1.07S97.91,194.09,96.73,194.09Zm4.19-1.74h2.93v1.06h-2.93Zm1.73,2.72v-1.24h1.71V190.9h-.51v1h-2.93v-1h-.52v2.93h1.72v1.24H99.79v.42H105v-.42Zm5.88,0V194h1.84v-.42h-3.53v-.93h3.4v-1.75h-3.93v.43h3.41v.9h-3.4V194H108v1.08h-2.33v.43h5.21v-.43Zm8.82.64h-2.63V195h2.63Zm0-1.15h-2.63v-.73h-.52v2.3h3.68v-2.3h-.53Zm-2.63-1.6a.9.9,0,1,1,1-.9A.91.91,0,0,1,114.72,193Zm2.63-2.48v1.36h-1.17a1.37,1.37,0,0,0-1.46-1.1,1.33,1.33,0,1,0,1.46,1.53h1.17v1.28h.53V190.5Zm2.42,1.12h1.63v-.43h-2.15v3.66h.37a9.36,9.36,0,0,0,2.12-.17l0-.43a8.4,8.4,0,0,1-1.92.16Zm2.48,1.06H121v.43h1.23v2.83h.5v-5.31h-.5Zm1.16-2.19v5.74h.5v-5.74Zm5.69,0v5.75h.52v-5.75Zm-2.51.44c-.85,0-1.46.78-1.46,2s.61,2,1.46,2,1.46-.78,1.46-2S127.44,190.93,126.59,190.93Zm0,.47c.56,0,1,.61,1,1.53s-.4,1.54-1,1.54-1-.6-1-1.54S126,191.4,126.59,191.4Zm8.83,2.19H132v-.91h3.22v-.42H132v-.85h3.35V191h-3.88v3h3.94Zm-4.62,1.47v.43H136v-.43Zm11.2-2a15.36,15.36,0,0,1-1.55.15v-.59h1.13v-.43h-2.24v-1h2.18v-.43h-2.7v1.82h1.1v.61c-.57,0-1.14,0-1.62,0l.08.42a24.2,24.2,0,0,0,3.66-.24Zm.48,2.69h-2.72v-.66h2.72Zm0-1.07h-2.72v-.61h-.53v2.1H143v-2.1h-.52Zm0-4.16v3.3H143v-3.3Zm2.59.55h-.53v3.7H145a14,14,0,0,0,2.81-.27l-.06-.45a13.65,13.65,0,0,1-2.7.27Zm3.29-.56v5.73h.53v-5.73Zm2.48,1H153V191H150.3v3.77h.46a13.26,13.26,0,0,0,2.71-.21l-.06-.43a13.63,13.63,0,0,1-2.58.19Zm4.59,1.28h-.94v-2.27H154v5.75h.53v-3.05h.94Zm.64,2.69a.33.33,0,0,1,.35-.35.37.37,0,0,1,.27.1.33.33,0,0,1,.1.25.3.3,0,0,1-.1.24.33.33,0,0,1-.27.1.33.33,0,0,1-.35-.34Z"/><path class="cls-1" d="M97.37,232.94H95.71v-.64H94.58v.64H92.91v.81h4.46Zm-3.08,2.16c0-.29.33-.43.85-.43s.85.14.85.43-.32.45-.85.45S94.29,235.39,94.29,235.1Zm3.28,1.39q-.9.1-1.86.15v-.4c.83-.13,1.35-.54,1.35-1.14s-.75-1.16-1.92-1.16-1.92.45-1.92,1.16.53,1,1.36,1.14v.44c-.66,0-1.3,0-1.87,0l.12.86a28.51,28.51,0,0,0,4.82-.31Zm-3.86,2.41h4.2v1.33H99V238H93.71Zm6.32-4.28H99v-2.26H97.91v5.36H99v-2.18h1Zm7.15-2.25h-1.13V238h1.13Zm-5.31,2.49a1,1,0,0,1,1-1,1,1,0,1,1,0,2A1,1,0,0,1,101.87,234.86Zm3.17,0a2.14,2.14,0,1,0-2.13,2A2,2,0,0,0,105,234.86Zm-2,4.33v-1.73H102v2.63h5.43v-.9Z"/><rect class="cls-12" x="0.05" y="0.05" width="199.95" height="355.68"/></g></g></svg>